<?xml version="1.0" encoding="UTF-8" standalone="no"?>
<!-- Created with Inkscape (http://www.inkscape.org/) -->

<svg
   xmlns:dc="http://purl.org/dc/elements/1.1/"
   xmlns:cc="http://creativecommons.org/ns#"
   xmlns:rdf="http://www.w3.org/1999/02/22-rdf-syntax-ns#"
   xmlns:svg="http://www.w3.org/2000/svg"
   xmlns="http://www.w3.org/2000/svg"
   xmlns:sodipodi="http://sodipodi.sourceforge.net/DTD/sodipodi-0.dtd"
   xmlns:inkscape="http://www.inkscape.org/namespaces/inkscape"
   width="260mm"
   height="297mm"
   viewBox="0 0 921.25984 1052.3622"
   id="svg2"
   version="1.1"
   inkscape:version="0.91 r"
   sodipodi:docname="pitcairn.svg">
  <defs
     id="defs4" />
  <sodipodi:namedview
     id="base"
     pagecolor="#ffffff"
     bordercolor="#666666"
     borderopacity="1.0"
     inkscape:pageopacity="0.0"
     inkscape:pageshadow="2"
     inkscape:zoom="0.49497475"
     inkscape:cx="541.84245"
     inkscape:cy="550.72873"
     inkscape:document-units="cm"
     inkscape:current-layer="layer1"
     showgrid="false"
     inkscape:window-width="960"
     inkscape:window-height="1031"
     inkscape:window-x="958"
     inkscape:window-y="0"
     inkscape:window-maximized="0" />
  <metadata
     id="metadata7">
    <rdf:RDF>
      <cc:Work
         rdf:about="">
        <dc:format>image/svg+xml</dc:format>
        <dc:type
           rdf:resource="http://purl.org/dc/dcmitype/StillImage" />
        <dc:title></dc:title>
      </cc:Work>
    </rdf:RDF>
  </metadata>
  <g
     inkscape:label="Layer 1"
     inkscape:groupmode="layer"
     id="layer1">
    <g
       transform="translate(138.221,405.46936)"
       id="g5013"
       style="stroke:#000000;stroke-width:2">
      <path
         inkscape:connector-curvature="0"
         id="path3585-7-3-5-1"
         d="M 555.71484,365.86133 A 123.64349,123.64349 0 0 0 432.07031,489.50586 123.64349,123.64349 0 0 0 555.71484,613.14844 123.64349,123.64349 0 0 0 679.35742,489.50586 123.64349,123.64349 0 0 0 555.71484,365.86133 Z m -2.6289,57.61914 c 2.92118,0.016 5.9267,0.68414 8.83398,2.11719 5.33853,2.63145 8.9335,7.47212 10.26172,12.89453 l -10.12109,0 c -1.74599,-3.41036 -5.18903,-5.40294 -8.76367,-5.52149 -2.50619,-0.0831 -5.07376,0.75331 -7.16016,2.66016 -0.94071,0.85975 -1.65528,1.83334 -2.19531,2.86133 l -10.09766,0 c 2.14128,-8.98382 10.29434,-15.06089 19.24219,-15.01172 z m -19.23438,24.25586 10.02539,0 c 1.13431,2.25104 3.11873,4.13657 5.85547,5.11328 2.16019,0.77096 5.52274,0.58375 7.57813,-0.42188 2.11669,-1.03559 3.74493,-2.71596 4.74804,-4.6914 l 10.14063,0 c -0.34013,1.40072 -0.82563,2.7837 -1.5,4.11914 -1.37986,2.73249 -3.06428,4.88821 -5.12305,6.55859 -2.05347,1.66606 -4.97699,3.26387 -6.82226,3.72852 l -1.27735,0.32226 0.19532,2.99024 c 0.10739,1.64415 0.27982,3.68607 0.38476,4.53906 l 0.19141,1.55078 8.8125,0.0742 8.81054,0.0762 0,5.21094 0,5.21289 -8.45898,0 -8.45899,0 0,1.42969 c 0,0.78615 0.18833,4.43478 0.41993,8.10742 0.2316,3.67264 0.80026,13.02097 1.26172,20.77539 1.06141,17.83649 1.05633,17.77596 1.70507,20.3125 0.77652,3.03609 1.46264,4.4266 3.00196,6.07227 1.93875,2.07266 3.64516,2.86656 6.49023,3.02343 6.0657,0.33447 11.64201,-3.57403 15.19141,-10.64648 0.55922,-1.11426 0.95645,-2.18315 0.88281,-2.375 -0.0736,-0.19186 -2.55058,-1.48129 -5.50586,-2.86719 -2.95524,-1.38589 -5.27419,-2.62032 -5.15234,-2.74219 0.2779,-0.27787 23.77305,-13.76025 24.09765,-13.82812 0.2591,-0.0541 8.74202,26.03143 8.53321,26.24023 -0.0702,0.0702 -2.7051,-0.65767 -5.85547,-1.61718 -4.55974,-1.38878 -5.77361,-1.66693 -5.95117,-1.36524 -0.12271,0.20845 -0.82272,1.4275 -1.55469,2.70899 -2.71813,4.75894 -5.34699,7.7944 -9.25,10.68164 -2.95077,2.18284 -5.8461,3.65599 -13.79297,7.01758 -9.95659,4.21167 -12.1469,5.42427 -17.65625,9.77539 -1.33569,1.05487 -2.60316,1.90827 -2.81836,1.89648 -0.21524,-0.0118 -2.23169,-1.40482 -4.48047,-3.0957 -5.36573,-4.03451 -6.7073,-4.71819 -21.00781,-10.69922 -5.12854,-2.14494 -10.3731,-5.63475 -13.25586,-8.82031 -1.76571,-1.95116 -4.17977,-5.47973 -5.49219,-8.0293 -0.49896,-0.9693 -0.98923,-1.76157 -1.08984,-1.76172 -0.10058,-1.4e-4 -2.699,0.76973 -5.77539,1.71289 -3.07635,0.94315 -5.66249,1.64806 -5.7461,1.56445 -0.14841,-0.14842 0.38148,-1.85572 5.42578,-17.51757 1.34866,-4.18739 2.53516,-7.90473 2.63672,-8.25977 0.1753,-0.61285 0.7977,-0.29403 12.30469,6.29297 6.66641,3.81607 12.20626,7.02485 12.31055,7.13086 0.10428,0.10601 -2.24338,1.32631 -5.2168,2.71094 -2.97342,1.38463 -5.4939,2.58902 -5.59961,2.67773 -0.33216,0.27875 1.67649,4.23135 3.18164,6.26172 1.85472,2.50188 3.86083,4.25384 6.24219,5.45117 6.20928,3.122 12.49752,1.36893 15.04492,-4.19531 1.60267,-3.50078 1.70562,-4.43516 3.20899,-29.04492 0.77995,-12.76777 1.41797,-23.61057 1.41797,-24.09571 l 0,-0.88281 -8.45899,0 -8.45898,0 0,-5.21289 0,-5.21094 8.81054,-0.0762 8.8125,-0.0742 0.17383,-1.97265 c 0.0952,-1.08562 0.26123,-3.12206 0.36914,-4.52539 l 0.19531,-2.55274 -1.63867,-0.50586 c -6.432,-1.98909 -11.44265,-7.64915 -13.0625,-14.25195 z"
         style="color:#000000;clip-rule:nonzero;display:inline;overflow:visible;visibility:visible;opacity:1;isolation:auto;mix-blend-mode:normal;color-interpolation:sRGB;color-interpolation-filters:linearRGB;solid-color:#000000;solid-opacity:1;fill:#cccccc;fill-opacity:1;fill-rule:nonzero;stroke:#000000;stroke-width:2;stroke-linecap:butt;stroke-linejoin:miter;stroke-miterlimit:4;stroke-dasharray:none;stroke-dashoffset:0;stroke-opacity:1;color-rendering:auto;image-rendering:auto;shape-rendering:auto;text-rendering:auto;enable-background:accumulate" />
      <path
         sodipodi:nodetypes="csssc"
         inkscape:connector-curvature="0"
         id="path3585-7-0"
         d="m 555.47803,380.90008 c 59.90789,0 108.47283,48.56495 108.47284,108.47284 0,59.9079 -48.56494,108.47284 -108.47284,108.47285 -59.9079,0 -108.47286,-48.56495 -108.47285,-108.47285 0,-35.60258 17.15212,-67.19907 43.64382,-86.97693"
         style="color:#000000;clip-rule:nonzero;display:inline;overflow:visible;visibility:visible;opacity:1;isolation:auto;mix-blend-mode:normal;color-interpolation:sRGB;color-interpolation-filters:linearRGB;solid-color:#000000;solid-opacity:1;fill:none;fill-opacity:1;fill-rule:nonzero;stroke:#000000;stroke-width:2;stroke-linecap:butt;stroke-linejoin:miter;stroke-miterlimit:4;stroke-dasharray:none;stroke-dashoffset:0;stroke-opacity:1;color-rendering:auto;image-rendering:auto;shape-rendering:auto;text-rendering:auto;enable-background:accumulate" />
    </g>
    <g
       id="g5319"
       transform="matrix(0.18348884,0,0,0.18348884,803.66717,715.67975)"
       style="fill:#b3b3b3;stroke:#000000;stroke-width:10.89984512">
      <g
         id="g5279"
         style="fill:#b3b3b3;stroke:#000000;stroke-width:10.89984512">
        <path
           id="path5281"
           d="M 242.606,0 C 142.124,0 60.651,81.473 60.651,181.955 c 0,40.928 13.504,78.659 36.31,109.075 L 242.607,485.213 388.252,291.03 c 22.808,-30.416 36.31,-68.146 36.31,-109.075 C 424.562,81.473 343.089,0 242.606,0 Z m 0,303.257 c -66.989,0 -121.302,-54.311 -121.302,-121.302 0,-66.989 54.313,-121.304 121.302,-121.304 66.991,0 121.302,54.315 121.302,121.304 0,66.992 -54.31,121.302 -121.302,121.302 z"
           inkscape:connector-curvature="0"
           style="fill:#b3b3b3;stroke:#000000;stroke-width:10.89984512" />
      </g>
      <g
         id="g5283"
         style="fill:#b3b3b3;stroke:#000000;stroke-width:10.89984512" />
      <g
         id="g5285"
         style="fill:#b3b3b3;stroke:#000000;stroke-width:10.89984512" />
      <g
         id="g5287"
         style="fill:#b3b3b3;stroke:#000000;stroke-width:10.89984512" />
      <g
         id="g5289"
         style="fill:#b3b3b3;stroke:#000000;stroke-width:10.89984512" />
      <g
         id="g5291"
         style="fill:#b3b3b3;stroke:#000000;stroke-width:10.89984512" />
      <g
         id="g5293"
         style="fill:#b3b3b3;stroke:#000000;stroke-width:10.89984512" />
      <g
         id="g5295"
         style="fill:#b3b3b3;stroke:#000000;stroke-width:10.89984512" />
      <g
         id="g5297"
         style="fill:#b3b3b3;stroke:#000000;stroke-width:10.89984512" />
      <g
         id="g5299"
         style="fill:#b3b3b3;stroke:#000000;stroke-width:10.89984512" />
      <g
         id="g5301"
         style="fill:#b3b3b3;stroke:#000000;stroke-width:10.89984512" />
      <g
         id="g5303"
         style="fill:#b3b3b3;stroke:#000000;stroke-width:10.89984512" />
      <g
         id="g5305"
         style="fill:#b3b3b3;stroke:#000000;stroke-width:10.89984512" />
      <g
         id="g5307"
         style="fill:#b3b3b3;stroke:#000000;stroke-width:10.89984512" />
      <g
         id="g5309"
         style="fill:#b3b3b3;stroke:#000000;stroke-width:10.89984512" />
      <g
         id="g5311"
         style="fill:#b3b3b3;stroke:#000000;stroke-width:10.89984512" />
    </g>
    <path
       style="color:#000000;clip-rule:nonzero;display:inline;overflow:visible;visibility:visible;opacity:1;isolation:auto;mix-blend-mode:normal;color-interpolation:sRGB;color-interpolation-filters:linearRGB;solid-color:#000000;solid-opacity:1;fill:#55ddff;fill-opacity:1;fill-rule:nonzero;stroke:#000000;stroke-width:2;stroke-linecap:butt;stroke-linejoin:miter;stroke-miterlimit:4;stroke-dasharray:none;stroke-dashoffset:0;stroke-opacity:1;color-rendering:auto;image-rendering:auto;shape-rendering:auto;text-rendering:auto;enable-background:accumulate"
       d="m 391.20613,488.61434 a 115.59064,115.59064 0 0 0 -99.19531,106.76367 l 12.99415,6.77148 -13.06055,7.19336 a 115.59064,115.59064 0 0 0 109.20116,108.99612 l 7.4375,-14.2676 7.72461,14.0234 A 115.59064,115.59064 0 0 0 522.58503,609.17293 l -13.29297,-6.92773 13.10547,-7.21875 A 115.59064,115.59064 0 0 0 424.86628,488.8741 l -16.29688,31.26563 -17.36327,-31.52539 z"
       id="path3585"
       inkscape:connector-curvature="0" />
    <circle
       style="color:#000000;clip-rule:nonzero;display:inline;overflow:visible;visibility:visible;opacity:1;isolation:auto;mix-blend-mode:normal;color-interpolation:sRGB;color-interpolation-filters:linearRGB;solid-color:#000000;solid-opacity:1;fill:#cccccc;fill-opacity:1;fill-rule:nonzero;stroke:#000000;stroke-width:2;stroke-linecap:butt;stroke-linejoin:miter;stroke-miterlimit:4;stroke-dasharray:none;stroke-dashoffset:0;stroke-opacity:1;color-rendering:auto;image-rendering:auto;shape-rendering:auto;text-rendering:auto;enable-background:accumulate"
       id="path3585-7-3-5-8"
       cx="697.55579"
       cy="606.95959"
       r="123.64349" />
    <path
       style="color:#000000;clip-rule:nonzero;display:inline;overflow:visible;visibility:visible;opacity:0.5;isolation:auto;mix-blend-mode:normal;color-interpolation:sRGB;color-interpolation-filters:linearRGB;solid-color:#000000;solid-opacity:1;fill:#b3b3b3;fill-opacity:1;fill-rule:nonzero;stroke:#000000;stroke-width:2;stroke-linecap:butt;stroke-linejoin:miter;stroke-miterlimit:4;stroke-dasharray:none;stroke-dashoffset:0;stroke-opacity:1;color-rendering:auto;image-rendering:auto;shape-rendering:auto;text-rendering:auto;enable-background:accumulate"
       d="m 128.85078,127.11762 0,117.75977 -7.08007,0 0,13.39844 7.08007,0 0,72.04296 -6.92578,0 0,13.0879 6.92578,0 0,79.4707 -7.08007,0 0,13.39844 7.08007,0 0,82.04296 -6.92578,0 0,13.0879 6.92578,0 0,67.4707 -7.08007,0 0,13.39844 7.08007,0 0,86.04296 -6.92578,0 0,13.0879 6.92578,0 0,71.4707 -7.08007,0 0,13.39844 7.08007,0 0,90.04292 -6.92578,0 0,13.0879 6.92578,0 0,78.2578 63.92774,0 0,-78.2578 23.625,0 0,-13.0879 -23.625,0 0,-174.91206 23.625,0 0,-13.0879 -23.625,0 0,-166.9121 23.625,0 0,-13.0879 -23.625,0 0,-174.9121 23.625,0 0,-13.0879 -23.625,0 0,-203.20117 -63.92774,0 z"
       id="rect4780"
       inkscape:connector-curvature="0" />
    <g
       id="g3764"
       transform="translate(216.58895,-549.17212)"
       style="fill:#00ff00;stroke:#000000;stroke-width:2">
      <path
         inkscape:connector-curvature="0"
         id="path88-1"
         d="m 471.49149,877.6799 -0.23589,0.92967 -0.39314,1.54946 -0.33764,1.66046 -0.0648,1.26269 0.4579,1.23494 0.84642,1.61883 0.8973,1.5402 0.61053,1.00831 0.62903,0.97592 0.80479,0.75391 0.90655,0.58741 1.39682,0.83254 1.47083,0.80942 1.1193,0.5134 1.10081,0.22664 1.43845,0.15263 1.39219,0.10638 0.96205,0.0786 1.43845,0.15726 1.22106,0.19888 1.02681,0.47178 1.21181,0.6244 0.94355,0.44403 1.39219,0.65215 1.4477,0.65679 1.11006,0.4579 1.11931,0.34226 1.4662,0.3839 1.39682,0.35614 0.90655,0.24976 1.45232,0.75854 0.63828,0.63366 0.94355,0.99905 1.01293,1.02218 0.85104,0.70304 1.06381,0.50877 1.49857,0.57353 1.43845,0.50878 0.89267,0.30989 0.65216,0.14801 0.77242,0.41627 1.23493,0.67991 1.29507,0.74003 0.94355,0.59203 0.80942,0.64754 1.00367,0.87879 0.94818,0.8603 0.6429,0.5874 0.83255,0.68916 0.66141,0.76779 0.29601,0.72154 0.37464,1.08693 0.37465,1.17018 0.29139,0.96668 0.30064,1.11006 0.39314,1.53095 0.39315,1.5587 0.30526,1.20257 0.3099,1.24881 0.40239,1.64196 0.38852,1.54945 0.27289,0.96205 0.78167,0.74004 0.90192,0.37927 1.4477,0.5689 1.49395,0.60591 1.04993,0.4949 0.78629,0.5504 0.91117,0.74929 0.84642,0.75392 0.59203,0.56428 0.80479,1.16556 0.9528,1.09618 0.94355,0.41627 1.42919,0.50877 1.4662,0.49028 1.05456,0.36077 0.86492,0.31914 1.04068,0.38852 1.6142,0.66603 0.63366,0.55966 0.74466,0.72616 0.95743,0.67991 1.48932,1.03143 1.48933,1.01755 0.96205,0.64753 1.39682,0.74004 0.64291,0.49027 0.96205,0.75392 1.03143,0.76779 0.86029,0.52265 1.03605,0.33302 1.44308,0.34689 1.4292,0.32839 0.98517,0.27752 1.45695,0.69378 1.23494,0.89267 0.50878,0.74466 0.6244,1.11006 0.61053,1.11468 0.45328,0.74929 0.88342,0.8973 0.9528,0.79091 0.58278,0.51803 0.82329,0.72616 0.88342,0.72154 0.77241,0.49953 0.98055,0.38852 1.38757,0.44402 1.4292,0.37464 1.09618,0.18039 1.06843,-0.10176 1.37832,-0.28676 1.37833,-0.31452 1.06843,-0.18501 1.06843,-0.0185 1.37832,0.0462 1.37832,0.037 1.06843,-0.0416 1.06843,-0.27289 1.37832,-0.45328 1.37832,-0.42089 1.06843,-0.16651 1.06843,0.25901 1.37832,0.54116 1.37832,0.57353 1.06843,0.36076 1.06843,0.14339 1.37832,0.0971 1.37832,0.0601 1.06843,0.037 1.06843,0.0185 1.37832,0.005 1.37832,-0.0139 1.06843,-0.0324 1.09156,-0.0509 1.41532,-0.0832 1.38757,-0.14801 1.00368,-0.24514 0.85566,-0.61978 1.02681,-0.9898 0.9528,-0.9898 0.6429,-0.61516 1.41533,-0.46252 0.92042,-0.0833 1.41995,-0.0971 1.47545,-0.17576 1.08693,-0.31915 0.98517,-0.81866 1.23957,-1.30894 1.15631,-1.31357 0.73078,-0.82792 0.78167,-0.84642 0.71229,-0.80941 1.12393,-1.28119 1.13318,-1.37833 0.73541,-1.09155 0.32377,-1.13781 0.23126,-1.52633 0.24976,-1.54483 0.37927,-1.19331 0.92043,-1.26269 0.68916,-0.80941 0.75391,-0.84642 0.74466,-0.81867 0.67529,-0.73079 0.86492,-0.9343 0.24976,-0.12488 0.86492,0.0277 1.08693,0.0971 1.35057,0.37465 1.59571,0.34689 1.00367,0 1.43383,-0.0555 1.43845,-0.0833 1.02217,-0.074 1.77147,-0.25901 1.49858,-0.24977 1.62345,-0.0832 0.34227,0.0832 0.79092,0.43015 1.29506,0.70766 1.38757,0.68916 1.07306,0.37002 1.0823,-0.037 1.43383,-0.24051 1.39682,-0.31452 0.98055,-0.25439 1.59571,-0.67991 1.35057,-0.67066 0.92967,-0.23126 1.02218,-0.50415 0.86954,-0.82329 1.29507,-1.31819 0.65678,-0.71691 0.57816,-0.69379 0.69378,-1.11468 0.0694,-1.14244 -0.22201,-1.52632 -0.37002,-1.54021 -0.37927,-1.18868 -0.60128,-1.17944 -0.9343,-1.5217 -0.96205,-1.52171 -0.69378,-1.17943 -0.55041,-1.21644 -0.65216,-1.58645 -0.63828,-1.53558 -0.50877,-1.06381 -0.54116,-0.75391 -0.70766,-0.81404 -0.72154,-0.75392 -0.57815,-0.57353 -0.64291,-0.57353 -0.86492,-0.71691 -0.85104,-0.69841 -0.60591,-0.52265 -0.9898,-1.03605 -0.93892,-1.09618 -0.49028,-0.66604 -0.66141,-0.9343 -0.67065,-0.9528 -0.52728,-0.72153 -0.50878,-0.71691 -0.65678,-0.92968 -0.70766,-0.86029 -0.66604,-0.50878 -0.95742,-0.111 -1.3922,0.0648 -1.43845,0.12488 -1.10543,0.0648 -1.06843,0 -1.37832,-0.0139 -1.37832,-0.0509 -1.06843,-0.10638 -1.1008,-0.27751 -1.43383,-0.45328 -1.39219,-0.46714 -0.9713,-0.31915 -1.51246,-0.43014 -1.28119,-0.41627 -0.96667,-0.55041 -1.13781,-0.80016 -1.01293,-0.78629 -0.73078,-0.57816 -0.7863,-0.62441 -0.77703,-0.61978 -0.69842,-0.55965 -0.88804,-0.71229 -0.0971,-0.17113 -0.005,-0.9343 0,-1.54945 -0.0694,-1.66046 -0.21276,-1.25807 -0.6429,-1.24419 -0.49953,-0.79554 -0.5504,-0.83254 -0.55503,-0.81404 -0.50878,-0.73079 -0.68916,-0.9898 -1.07305,-1.28582 -0.69379,-0.80479 -1.07305,-1.23956 -1.07768,-1.24419 -0.71229,-0.82329 -0.61516,-0.80942 -0.72616,-0.75391 -0.96667,-0.71691 -0.72154,-0.51341 -0.78629,-0.55502 -1.49395,-1.04531 -0.92505,-0.64291 -0.61053,-0.36076 -0.75391,-0.59203 -1.21182,-0.95743 -1.29969,-0.97592 -1.01755,-0.64291 -1.07306,-0.36077 -1.43382,-0.34227 -1.40607,-0.29601 -0.98055,-0.22664 -1.54021,-0.50877 -1.30894,-0.50416 -0.93892,-0.6059 -1.10543,-0.57816 -0.9343,-0.16188 -1.3922,-0.17576 -1.45232,-0.18038 -1.11006,-0.18039 -1.06843,-0.28214 -1.37832,-0.41164 -1.37832,-0.42552 -1.06843,-0.31915 -1.11468,-0.30064 -1.46158,-0.38389 -1.39682,-0.37002 -0.92042,-0.25901 -0.94355,-0.3469 -0.80016,-0.43014 -0.63829,-0.4209 -0.92504,-0.64291 -0.92968,-0.68916 -0.66141,-0.56428 -0.4949,-0.6429 -0.56427,-0.88805 -0.55503,-0.89267 -0.47178,-0.66141 -0.54578,-0.59666 -0.74003,-0.74003 -0.80017,-0.71229 -0.72154,-0.50415 -1.00367,-0.39315 -1.44308,-0.44864 -1.44307,-0.4209 -1.00368,-0.31452 -1.51245,-0.61978 -1.28119,-0.64753 -0.96668,-0.8973 -1.1378,-1.0638 -1.00368,-0.70304 -1.49858,-1.0083 -1.47082,-0.9713 -0.92042,-0.59203 -0.8048,-0.17113 -0.72616,-0.36077 -1.15168,-0.59203 -1.23494,-0.61516 -0.98055,-0.43477 -1.03143,-0.34689 -1.38294,-0.41165 -1.40145,-0.36539 -1.08231,-0.20814 -1.06843,-0.0277 -1.37832,0.0648 -1.37832,0.0925 -1.06843,0.0555 -1.06843,0.0185 -1.37832,0.0139 -1.37832,0.005 -1.06843,-0.0185 -1.06843,-0.0786 -1.37832,-0.13413 -1.37832,-0.12951 -1.06843,-0.0555 -1.06843,0.0416 -1.37832,0.0971 -1.37832,0.12488 -1.06843,0.11563 -1.08231,0.13876 -1.40607,0.20351 -1.38757,0.24051 -1.01755,0.25901 -0.92505,0.46253 -1.14243,0.70303 -1.06381,0.69379 -0.68916,0.44402 -1.07305,0.5504 -0.85567,0.85105 -0.64291,0.64753 -0.69841,0.72616 -0.69378,0.75392 -0.61979,0.72616 -0.77704,1.15168 -0.15263,1.21644 0.0971,1.62808 0.16651,1.55871 0.0601,1.00368 -0.78167,1.41532 -0.4394,0.79091 -0.67065,1.20719 -0.70767,1.20719 -0.5504,0.78166 -1.15631,0.67991 -1.36444,0.58741 -1.01293,0.58278 -1.4847,0.86492 -1.45695,0.86492 -0.93892,0.57815 -0.74467,0.67528 -0.63365,0.57353 -1.61421,0.80017 -1.04068,0.48102 -0.86492,0.38852 -1.04068,0.44403 -1.4477,0.60128 -1.4292,0.60128 -0.97592,0.44402 -1.32282,0.86492 -1.12393,0.78167 -1.12393,0.5134 -1.32282,0.56428 -0.99443,0.43477 -1.46157,0.63828 -1.45695,0.66141 -0.97593,0.49953 -1.16093,1.05455 -0.98055,1.03605 -1.33207,0.9713 -1.41995,1.07768 -0.73079,0.72154 -0.9898,1.04068 -0.93429,0.99905 -0.55966,0.59666"
         style="display:inline;overflow:hidden;fill:#00ff00;stroke:#000000;stroke-width:2;stroke-linejoin:round;stroke-opacity:0.35;text-rendering:optimizeLegibility" />
      <path
         inkscape:connector-curvature="0"
         id="path90-9"
         d="m 208.04149,757.28229 0.16651,1.0083 0.27752,1.68359 0.32839,1.68821 0.31914,1.0268 1.06843,0.31452 1.38295,0.0231 0.96204,0.31452 1.40145,0.4949 1.44308,0.55503 1.08693,0.49027 1.0638,0.68454 1.36907,0.98517 1.27657,0.9528 0.78629,0.58278 0.40239,0.27289 0.87417,0.56428 1.4292,0.9158 1.5032,0.9528 1.08693,0.67066 0.92968,0.5134 1.15168,0.60128 1.06843,0.5504 0.69379,0.35614 1.04992,0.56891 0.95743,0.86954 0.72154,0.67066 0.79092,0.74004 0.78629,0.73541 0.71229,0.66604 0.92042,0.85567 0.4579,0.29601 0.84642,0.97593 0.65678,0.76316 0.72154,0.84179 0.72153,0.8418 0.65216,0.76316 0.83255,0.9713 0.23126,0.25439 0.61978,0.9713 0.48102,0.75391 0.53653,0.84179 0.54115,0.8603 0.49953,0.80479 0.68453,1.17018 0.3839,0.87417 0.36077,1.01293 0.55503,1.59571 0.42089,0.98055 0.62904,0.94355 0.69841,0.61978 1.0823,0.87879 1.15169,0.88805 0.90654,0.64753 0.99905,0.57816 1.35057,0.71691 1.28119,0.66141 0.79092,0.40702 0.4764,0.25439 0.87417,0.37002 1.41995,0.59665 1.49857,0.65216 1.10081,0.53653 0.99442,0.65678 1.25807,0.9158 1.17481,0.87879 0.74004,0.54578 0.72616,0.4024 0.87417,0.53652 1.40145,0.8603 1.48932,0.89729 1.13319,0.63829 1.06843,0.50415 1.37832,0.60128 1.37832,0.56428 1.06843,0.39777 1.06843,0.29139 1.37832,0.31451 1.37832,0.31452 1.06843,0.28214 1.06843,0.38852 1.37832,0.5504 1.37832,0.56428 1.06843,0.4394 1.13318,0.47177 1.48933,0.62441 1.40144,0.58741 0.86955,0.36076 0.67066,0.21276 0.74466,0.42553 1.19331,0.69378 1.28119,0.72154 1.00831,0.50415 1.06843,0.36077 1.43382,0.41164 1.40607,0.39315 0.98518,0.31452 1.57258,0.81866 1.33207,0.76779 0.91117,0.4394 1.07768,0.42552 0.93429,0.30527 1.39683,0.43939 1.45695,0.41628 1.11468,0.23588 1.06843,0.0231 1.37832,-0.074 1.37832,-0.10638 1.06843,-0.074 1.06843,-0.0462 1.37832,-0.0555 1.37832,-0.0601 1.06843,-0.0509 1.06843,-0.0694 1.37832,-0.10175 1.37832,-0.10638 1.06843,-0.0833 1.11468,-0.0786 1.46158,-0.10175 1.39682,-0.11563 0.92042,-0.12026 0.92967,-0.41165 0.79092,-0.61978 0.63828,-0.55965 0.92505,-0.85104 0.93892,-0.8788 0.67066,-0.64753 1.15169,-1.16556 1.10543,-1.30432 0.59203,-0.96205 0.80479,-1.40607 0.76316,-1.3737 0.4764,-0.86029 0.3654,-0.80017 0.0879,-0.99442 0.12025,-1.59108 0.19426,-1.65121 0.30527,-1.16556 0.70303,-0.8973 1.11931,-1.05455 1.16556,-0.98055 0.83717,-0.67529 1.47545,-0.95742 1.33207,-0.83717 0.95742,-1.04068 1.12856,-1.07305 0.99443,-0.48565 1.4847,-0.63829 1.47082,-0.61978 0.94355,-0.42552 1.31819,-1.11931 0.67991,-1.05455 0.4949,-0.79554 0.53191,-0.87417 0.52727,-0.86955 0.4764,-0.79091 0.61516,-1.01755 0.24976,-0.52728 0.72616,-0.88342 0.57353,-0.67991 0.62441,-0.75391 0.60128,-0.76779 0.5134,-0.72617 0.4949,-1.06843 -0.42089,-0.85104 -0.99905,-1.01755 -1.17019,-0.9528 -0.94355,-0.66141 -1.07768,-0.49953 -1.50783,-0.54577 -1.43844,-0.4764 -0.86492,-0.29139 -0.11563,-0.10638 -0.83255,-0.36077 -1.38757,-0.59666 -1.47082,-0.66141 -1.08693,-0.55502 -1.00368,-0.69842 -1.28119,-0.98517 -1.19331,-0.9528 -0.74929,-0.59203 -0.67066,-0.48565 -0.86955,-0.0462 -1.40144,-0.0324 -1.48933,-0.0324 -1.13318,-0.037 -1.06843,-0.0555 -1.37832,-0.0786 -1.37832,-0.10638 -1.06843,-0.13876 -1.11931,-0.25439 -1.46157,-0.39314 -1.39683,-0.44402 -0.92042,-0.40702 -0.9343,-1.28582 -0.76779,-1.60496 -0.6244,-1.13781 -0.43477,-0.80479 -0.46715,-0.86029 -0.86955,-1.61421 -0.5319,-0.98517 -0.26826,-0.37927 -0.85105,-0.63829 -1.40144,-1.03605 -1.49858,-1.00368 -1.13781,-0.5504 -1.06843,0.037 -1.37832,0.32377 -1.37832,0.40702 -1.06843,0.28677 -1.06843,0.20351 -1.37832,0.25438 -1.37832,0.23127 -1.06843,0.13413 -1.06843,0.009 -1.37832,-0.0509 -1.37832,-0.0648 -1.06843,-0.0185 -1.06843,0.0925 -1.37832,0.16188 -1.37832,0.12026 -1.06843,-0.037 -1.12856,-0.37002 -1.48008,-0.64291 -1.40144,-0.68453 -0.88805,-0.4949 -0.57815,-0.8048 -0.49028,-0.88342 -0.73079,-0.63828 -1.13318,-0.92505 -1.15631,-0.93429 -0.80017,-0.67066 -1.19793,-1.02681 -1.01755,-1.21181 -0.39315,-1.09155 -0.47177,-1.63734 -0.44403,-1.62346 -0.31914,-1.04992 -0.52265,-0.85567 -0.52728,-0.72617 -0.34226,-0.70303 -0.48565,-1.04993 -0.48565,-1.12856 -0.3469,-0.94355 -0.24513,-1.14706 -0.27289,-1.5957 -0.28214,-1.57721 -0.27289,-1.0823 -1.00368,-1.53096 -1.15631,-1.29969 -0.61515,-0.5874 -0.85105,-0.74929 -0.85104,-0.72616 -0.60591,-0.51341 -0.94354,-0.77241 -1.02681,-0.87417 -0.80941,-0.76316 -1.18869,-1.14244 -1.17019,-1.12856 -0.74928,-0.72153 -0.97593,-0.94818 -0.88804,-0.36077 -1.40145,-0.52265 -1.48008,-0.49952 -1.12855,-0.28677 -1.06843,-0.0555 -1.37833,0.0462 -1.37832,0.10638 -1.06843,0.13413 -1.06843,0.27752 -1.37832,0.44865 -1.37832,0.42552 -1.06843,0.21738 -1.09155,-0.10638 -1.41995,-0.29139 -1.38757,-0.28214 -0.99443,-0.0833 -0.83254,0.24976 -0.9898,0.48103 -0.92042,0.55965 -0.62441,0.48103 -0.87417,1.43845 -0.65678,1.49395 -0.27289,1.21181 -0.49028,1.25806 -0.73078,0.73542 -1.16094,1.0268 -1.24881,1.01293 -0.9898,0.68453 -1.10544,0.46252 -1.5032,0.49028 -1.42457,0.42552 -0.86492,0.26827 -0.30527,0.29601 -0.79554,0.90655 -0.61515,0.71228 -0.69379,0.78167 -0.71692,0.77241 -0.68916,0.68454 -1.08231,0.80479 -1.05455,-0.0555 -1.38295,-0.4764 -1.38757,-0.56428 -1.07305,-0.31914 -1.09618,-0.0277 -1.4292,0.074 -1.38757,0.13876 -0.98055,0.17113 -1.62346,0.82792 -1.37832,0.96667 -0.9713,0.98055 -0.92042,1.10543 -0.51341,0.63366 -0.69841,0.88805 -0.68453,0.9528 -0.4764,0.83716 -0.33302,1.12394 -0.36077,1.60495 -0.33764,1.59109 -0.26364,1.07768 -0.51802,1.39219 -0.70304,1.17944 -0.71691,0.64753 -1.10081,0.86955 -1.07305,0.81866 -0.64291,0.49028"
         style="display:inline;overflow:hidden;fill:#00ff00;stroke:#000000;stroke-width:2;stroke-linejoin:round;stroke-opacity:0.35;text-rendering:optimizeLegibility" />
      <path
         inkscape:connector-curvature="0"
         id="path92-3"
         d="m 280.26769,895.53704 -0.45327,0.95743 -0.75392,1.60033 -0.70766,1.66971 -0.30526,1.17481 0.31914,0.88804 0.72153,1.04068 0.79092,0.96668 0.53653,0.67066 0.57815,0.94354 0.68454,0.89268 0.66141,0.61515 1.00367,0.8788 1.07768,0.86029 0.88805,0.55503 1.0083,0.28676 1.38757,0.23589 1.4107,0.18964 1.08693,0.15263 1.08693,0.16651 1.4107,0.20351 1.38757,0.20351 1.01292,0.16651 0.8973,0.18963 1.09156,0.25439 1.68358,0.4394 1.22569,0.67528 0.90192,0.41627 1.40145,0.63829 1.47545,0.67528 1.11468,0.52728 1.11006,0.56428 1.4477,0.75853 1.35057,0.71229 0.81404,0.43477 0.17113,0.17114 0.84642,0.6244 1.40607,1.03143 1.5032,1.05918 1.14244,0.70304 1.13781,0.42089 1.49395,0.4209 1.40144,0.36077 0.8603,0.23126 0.40239,0.37927 0.85105,0.86955 0.65678,0.67528 0.72616,0.74929 0.72617,0.74929 0.66141,0.68453 0.86491,0.8973 0.68916,0.78166 0.3839,0.97593 0.5874,1.56795 0.61516,1.64659 0.4764,1.21643 0.49028,1.11006 0.65215,1.40607 0.61516,1.30895 0.3839,0.82329 0.32376,0.75854 0.86955,1.03605 0.67991,0.79554 0.74928,0.86955 0.74467,0.86954 0.67528,0.78167 0.85567,0.9898 0.0786,0.0648 0.8788,0.83717 0.69378,0.66141 0.76779,0.73541 0.77704,0.74004 0.71691,0.67528 0.98055,0.88805 0.93893,0.54115 0.80016,0.32377 1.4477,0.90192 0.9158,0.5689 0.79091,0.45327 1.02681,0.49491 1.45695,0.66603 1.43844,0.65216 0.97593,0.44865 1.24419,0.61515 1.05455,0.60591 1.19331,1.01293 1.40608,1.14243 1.02217,0.61978 1.48933,0.85567 1.45695,0.81867 0.92505,0.5134 1.04993,0.44402 0.69378,0.32377 1.06843,0.49952 1.15168,0.54578 0.92968,0.44865 1.07305,0.5319 1.47545,0.74004 1.42458,0.72616 0.92504,0.49028 1.47083,1.09618 0.65678,0.64291 0.98055,0.98517 1.01755,1.00368 0.76779,0.70303 0.74004,0.53191 0.95743,0.61053 1.55408,0.92967 1.64658,0.78166 0.9158,-0.0555 1.39682,-0.15726 1.46157,-0.17576 1.11931,-0.111 1.13781,-0.0462 1.49395,-0.0324 1.40145,-0.0278 0.86029,-0.0231 0.4209,-0.14801 0.82329,-0.12025 1.34132,-0.18501 1.37832,-0.17113 0.92967,-0.074 1.14244,0.19426 0.99905,0.35614 1.26269,0.70304 1.48932,0.71229 0.96668,0.19426 1.39219,0.20813 1.43383,0.17576 1.1008,0.0925 1.06843,0.005 1.37832,-0.0462 1.37833,-0.0786 1.06843,-0.0879 1.12855,-0.15726 1.48008,-0.24513 1.40145,-0.25902 0.89267,-0.20351 1.09155,-1.01293 1.74372,-0.60128 1.13781,-0.35614 0.92042,-0.28676 1.05455,-0.30064 1.4477,-0.4024 1.41995,-0.43015 0.97592,-0.38852 0.66604,-0.52727 0.70766,-0.75392 1.16556,-1.35982 1.18406,-1.26731 1.16556,-1.28582 1.18406,-1.30894 0.65216,-0.79554 0.4764,-0.74466 0.40702,-1.09619 0.49027,-1.5957 0.46253,-1.60033 0.31914,-1.11006 0.43477,-1.66971 0.46252,-1.41532 0.91118,-1.22569 1.07768,-1.09618 1.33207,-0.85105 1.57258,-0.67066 0.97592,-0.0925 1.3922,-0.0277 1.4292,-0.009 1.09618,-0.037 1.06843,-0.12489 1.37832,-0.19426 1.37832,-0.18963 1.06843,-0.10176 1.06843,-0.005 1.37832,0.0416 1.37832,0.074 1.06843,0.0971 1.06843,0.22664 1.37832,0.36076 1.37832,0.33765 1.06843,0.15263 1.06843,-0.0925 1.37832,-0.24514 1.37832,-0.31914 1.06843,-0.31452 1.12856,-0.4949 1.4847,-0.74466 1.40145,-0.74467 0.87879,-0.49027 0.82329,-0.94818 -0.27751,-1.27656 -0.54578,-1.42457 -1.21181,-1.23957 -0.74004,-0.74929 -0.49952,-0.71691 -0.3099,-1.0823 -0.31914,-1.58646 -0.29601,-1.60496 -0.24051,-1.12855 -0.28677,-0.86492 -0.38389,-0.99906 -0.61054,-1.5772 -0.0694,-0.94817 -0.33302,-1.01756 -0.84642,-0.87879 -0.65678,-0.62903 -0.72154,-0.67991 -0.72616,-0.67529 -0.66604,-0.61516 -0.87879,-0.82791 -0.93892,-1.09618 -0.70767,-0.95743 -0.52265,-0.72153 -0.58278,-0.7863 -0.6059,-0.78629 -0.58278,-0.71228 -0.9528,-0.9158 -1.08231,-0.31451 -1.48007,-0.12026 -1.42458,-0.0185 -0.91117,-0.0139 -1.22569,-0.0648 -1.68358,-0.12026 -1.09156,-0.111 -0.89729,-0.17114 -1.01293,-0.36539 -1.38757,-0.58278 -1.4107,-0.61978 -1.08693,-0.48103 -1.10081,-0.50415 -1.43382,-0.67066 -1.3922,-0.6429 -0.96667,-0.4209 -1.48008,-0.37465 -1.25344,-0.34226 -1.11005,-0.81404 -1.04993,-1.04531 -0.47178,-0.66603 -0.61053,-0.96205 -0.5689,-1.03143 -0.35615,-0.88805 -0.11563,-1.12393 -0.0231,-1.58183 -0.037,-1.58183 -0.14801,-1.11468 -0.46715,-0.86492 -0.75391,-0.99905 -0.78629,-0.92505 -0.55503,-0.65216 -0.84642,-0.97592 -0.89267,-0.98518 -0.63828,-0.73079 -0.92505,-1.05918 -0.92968,-1.05455 -0.65678,-0.72154 -1.01293,-0.96205 -0.99442,-0.87417 -1.33207,-1.22568 -0.82792,-0.73079 -0.72616,-0.57816 -1.0083,-0.65215 -1.44308,-0.8788 -1.39219,-0.83254 -0.84179,-0.50415 -0.20814,-0.17114 -0.85104,-0.23588 -1.40608,-0.37465 -1.49857,-0.39777 -1.14244,-0.30064 -1.06843,-0.28676 -1.37832,-0.37002 -1.37832,-0.3469 -1.06843,-0.22201 -1.06843,-0.0694 -1.37832,-0.0139 -1.37832,-0.0324 -1.06843,-0.12025 -1.13781,-0.4024 -1.49395,-0.64753 -1.40144,-0.65216 -0.86492,-0.40702 -0.4764,-0.36077 -0.77242,-0.25439 -1.25344,-0.39777 -1.34594,-0.43015 -1.04531,-0.35151 -1.1008,-0.39315 -1.47083,-0.54115 -1.41069,-0.55503 -0.9158,-0.43015 -0.78629,-0.91117 -0.66604,-1.13781 -0.69841,-0.96205 -1.0453,-1.43845 -1.03605,-1.41069 -0.66141,-0.8788 -0.8418,-0.71691 -0.72153,-0.37927 -1.13781,-0.57353 -1.22106,-0.6059 -0.9713,-0.47178 -1.08693,-0.50415 -1.48008,-0.67528 -1.41995,-0.65679 -0.90654,-0.44402 -1.11006,-1.09618 -0.68454,-0.67066 -1.05455,-1.0268 -1.12856,-1.02681 -0.92042,-0.67066 -1.03605,-0.35151 -1.41995,-0.30989 -1.41532,-0.25902 -1.01756,-0.19888 -0.85566,-0.20814 -1.02681,-0.25901 -1.5957,-0.4209 -1.41533,-0.5689 -0.90654,0.0277 -1.39682,0.0925 -1.47083,0.10176 -1.11931,0.0555 -1.06843,-0.005 -1.37832,-0.0324 -1.37832,-0.0462 -1.06843,-0.0463 -1.06843,-0.0833 -1.37832,-0.12951 -1.37832,-0.12488 -1.06843,-0.0648 -1.11006,0.009 -1.4477,0.0462 -1.39219,0.0648 -0.94355,0.0694 -1.21181,0.29602 -1.0268,0.33302 -1.22107,0.23126 -1.43845,0.40239 -1.01292,0.49953 -1.47083,0.78166 -1.45232,0.80942 -0.96205,0.58741 -1.15631,0.93429 -0.67991,1.15631 0.12488,1.02681 0.36077,1.5402 0.33764,1.60958 0.0555,1.23032 -0.49952,1.25343 -0.42552,0.8048 -0.48103,0.84179 -0.94355,1.54945 -0.61515,0.95743 -0.97593,0.59203 -0.91117,0.43014 -1.44307,0.67529 -1.48933,0.71229 -1.04993,0.54577 -0.80479,0.55041 -0.94355,0.72616 -0.87417,0.69841 -0.6059,0.46715 -0.76317,0.4764 -0.90192,0.53653 -0.96205,0.63365 -1.47082,0.97593 -1.48008,0.97592 -0.98518,0.64291 -1.08693,0.62903 -0.92042,0.53191 -1.32282,0.96205 -0.82791,0.5874 -0.73542,0.4579 -1.01755,0.4764 -1.46157,0.62903 -1.4477,0.61516 -0.9713,0.43014 -1.17944,0.62904 -0.99905,0.61515 -1.24419,0.91117 -1.47082,1.07306 -1.04068,0.69841 -1.51245,1.00368 -1.46158,0.96667 -0.88342,0.58741 -0.15263,0.17113"
         style="display:inline;overflow:hidden;fill:#00ff00;stroke:#000000;stroke-width:2;stroke-linejoin:round;stroke-opacity:0.35;text-rendering:optimizeLegibility" />
      <path
         inkscape:connector-curvature="0"
         id="path94-7"
         d="m 62.987472,738.70157 -0.18038,0.92967 -0.30527,1.54946 -0.35152,1.66046 -0.32839,1.26269 -0.5319,1.17943 -0.79092,1.5217 -0.72616,1.52171 -0.33764,1.17943 0.22201,1.24882 0.56891,1.64196 0.6614,1.54483 0.49953,0.96204 0.92042,0.47178 1.16556,0.30989 0.9898,0.66603 1.4847,1.04993 1.47083,1.05456 0.94817,0.68916 1.359821,1.16093 0.64754,0.4394 0.9713,0.64291 1.0453,0.67066 0.86954,0.52727 1.06843,0.57816 1.49395,0.78166 1.43383,0.74467 0.90192,0.47177 0.82329,0.5504 0.75854,0.67991 1.19794,1.08693 1.23956,1.11469 0.8788,0.75391 1.47545,0.9343 1.31356,0.83717 1.05918,1.17481 1.04068,1.27194 0.54115,0.59203 0.73079,0.78629 0.73541,0.83716 0.55503,0.74467 0.55503,1.04993 0.71229,1.51245 0.66141,1.46157 0.40702,0.8973 0.17113,0.48565 0.54115,1.01293 0.4209,0.78629 0.47177,0.86954 0.48103,0.87417 0.44865,0.80017 0.63828,1.06843 0.781663,0.79554 0.93893,0.55503 0.92967,0.50877 1.415324,0.74004 1.4662,0.74466 1.08231,0.52266 0.99442,0.40239 1.25344,0.46253 1.17019,0.41627 0.73541,0.26364 0.74467,0.31451 0.92042,0.4209 1.47545,0.67528 1.5032,0.72616 1.00368,0.56891 1.12855,1.38294 0.95743,1.32282 1.29044,0.87417 1.5217,0.79554 0.9713,0.37927 1.3922,0.49953 1.43382,0.4949 1.10081,0.37464 1.12856,0.37465 1.4847,0.48102 1.40144,0.45327 0.8788,0.29139 0.86029,0.37927 0.72154,0.29602 1.13318,0.46715 1.21644,0.50415 0.9713,0.4209 1.04068,0.49952 1.40607,0.69379 1.40607,0.68916 1.04068,0.48102 0.9713,0.35615 1.21644,0.39777 1.13318,0.36076 0.72154,0.24052 0.86029,0.48565 0.8788,0.37002 1.40144,0.57815 1.48471,0.61978 1.12855,0.49953 1.13781,0.57353 1.49395,0.78629 1.40145,0.74929 0.86492,0.46252 0.4764,0.27289 0.77241,0.26364 1.25344,0.42089 1.34595,0.40702 1.0453,0.21739 1.0453,-0.0324 1.38295,-0.16188 1.39219,-0.18963 1.07305,-0.12489 1.06843,-0.0555 1.37832,-0.0509 1.37832,-0.0462 1.06843,-0.0416 1.06843,-0.0601 1.37832,-0.0833 1.37832,-0.0786 1.06843,-0.0509 1.13781,-0.0231 1.49395,-0.0185 1.40145,-0.0185 0.86029,-0.0231 0.4024,-0.25439 0.84179,-0.77241 0.65216,-0.60128 0.72154,-0.66604 0.72616,-0.67066 0.66603,-0.61515 0.88805,-0.83255 1.12856,-1.24418 0.4394,-0.98518 0.6429,-1.54483 0.64754,-1.63271 0.44864,-1.24419 0.34227,-1.25806 0.38852,-1.65584 0.34689,-1.54945 0.22202,-0.93892 0.28676,-0.23127 0.91117,-0.84179 0.71229,-0.66141 0.79091,-0.73078 0.79092,-0.73079 0.72616,-0.66604 0.96205,-0.86954 1.04993,-0.67529 0.71691,-0.73541 1.11468,-1.17018 1.15631,-1.18869 0.85105,-0.78629 0.75391,-0.43477 0.94355,-0.40702 1.51708,-0.67529 0.88342,-0.84642 0.79554,-1.01292 0.4394,-0.66604 0.59665,-0.96205 0.61516,-1.03142 0.48565,-0.88805 0.6244,-1.12856 0.86492,-1.59108 0.72617,-1.58183 0.20813,-1.10081 -0.70303,-0.79554 -1.3737,-0.88342 -1.48008,-0.81866 -1.01292,-0.60591 -0.66604,-0.55965 -0.73541,-0.67529 -1.21644,-1.0638 -1.0453,-0.47178 -1.23031,-0.55965 -0.94818,-0.68454 -1.39219,-1.05918 -1.4477,-1.0268 -1.11006,-0.5874 -1.06843,-0.0925 -1.37832,0.12488 -1.37832,0.23589 -1.06843,0.24051 -1.06843,0.39777 -1.37832,0.62441 -1.37832,0.61053 -1.06843,0.35152 -1.09618,0.0971 -1.4292,0 -1.38757,-0.10638 -0.97593,-0.22664 -0.75391,-0.57815 -0.85104,-0.94355 -0.79092,-1.00368 -0.5689,-0.74929 -0.98055,-1.5587 -0.9528,-1.4847 -1.29507,-1.21181 -1.32282,-1.15169 -1.0453,-1.25806 -1.23031,-1.06381 -0.94818,-0.0971 -1.39219,0.0277 -1.4477,0.0648 -1.11006,0.005 -1.06843,-0.11563 -1.37831,-0.19426 -1.37832,-0.21276 -1.06843,-0.17576 -1.06843,-0.20813 -1.37832,-0.29139 -1.37832,-0.27752 -1.06843,-0.16651 -1.06843,-0.037 -1.37832,0.0185 -1.37832,0.0277 -1.06843,-0.009 -1.12856,-0.0833 -1.48008,-0.14338 -1.40144,-0.16189 -0.88805,-0.13875 -1.03143,-0.90655 -0.73078,-1.04993 -0.54578,-0.80016 -0.59203,-0.8788 -0.58741,-0.87417 -0.5319,-0.79091 -0.67991,-1.00368 -0.18963,-0.17113 -0.92043,-0.92968 -0.72153,-0.73078 -0.80017,-0.8048 -0.80016,-0.80941 -0.72617,-0.73079 -0.92967,-0.9343 -0.34227,-0.29601 -0.25439,-0.94355 -0.39314,-1.54946 -0.42552,-1.65583 -0.3469,-1.25807 -0.40239,-1.17943 -0.55503,-1.5217 -0.54115,-1.52171 -0.36077,-1.17943 -0.22201,-1.25344 -0.21739,-1.64659 -0.18963,-1.54945 -0.13876,-0.95742 -0.51803,-0.65216 -0.93429,-0.8788 -0.72154,-0.67066 -0.79554,-0.74004 -0.79554,-0.73541 -0.72154,-0.66603 -0.92967,-0.85105 -0.4394,-0.21276 -0.80942,-0.78629 -1.31819,-1.29506 -0.70766,-0.68454 -0.66141,-0.62903 -0.95742,-0.84642 -1.51246,-0.72616 -1.31819,-0.43477 -0.9898,-0.4579 -1.07768,-0.30064 -0.81404,0.10175 -1.18869,0.23589 -1.17018,0.25439 -0.74929,0.16651 -0.97593,0.23126 -0.88804,0.31914 -1.40145,0.51803 -1.48007,0.49952 -1.12856,0.26827 -1.09618,-0.11564 -1.4292,-0.32376 -1.387574,-0.26827 -0.98055,0.0509 -0.77242,0.71229 -0.883423,1.24881 -0.82329,1.32282 -0.58278,0.93892 -0.90192,1.57258 -0.9343,1.42458 -0.71228,0.57815 -1.03606,0.71691 -1.0268,0.67066 -0.68454,0.4394 -1.43382,0.78167 -0.81404,0.88804 -0.59666,0.67991 -0.64753,0.74466 -0.64753,0.74467 -0.58741,0.67991 -0.77704,0.88804 -0.82329,0.75854 -0.88342,0.25439 -1.4107,0.36539 -1.4847,0.31452 -1.11468,0.0971 -1.08231,-0.28677 -1.40144,-0.56427 -1.30895,-0.58741 -0.79554,-0.35614 -0.30526,-0.10638 -0.92042,-0.0601 -1.51246,-0.0879 -1.5217,-0.0786 -0.938921,-0.0277 -0.61053,0.36077 -0.8233,0.89267 -0.62903,0.69378 -0.69378,0.76779 -0.69379,0.76779 -0.62903,0.69841 -0.81404,0.91117 -0.4764,0.67529"
         style="display:inline;overflow:hidden;fill:#00ff00;stroke:#000000;stroke-width:2;stroke-linejoin:round;stroke-opacity:0.35;text-rendering:optimizeLegibility" />
      <path
         inkscape:connector-curvature="0"
         id="path96-4"
         d="m 92.082151,898.79646 0.4764,0.71691 0.59665,0.88805 0.95743,1.42919 0.98517,1.43845 0.67066,0.92968 0.772425,0.81866 0.91117,0.5319 0.92042,0.27289 1.39682,0.34227 1.461584,0.33302 1.1193,0.23588 1.06843,0.18501 1.37832,0.21277 1.37832,0.20813 1.06843,0.17576 1.10544,0.22201 1.44307,0.30527 1.3922,0.30989 0.95742,0.23589 1.36445,0.49952 1.1563,0.5134 1.08694,0.52265 1.28119,0.68454 0.99442,0.59203 1.46158,0.89267 1.45695,0.89267 0.98055,0.59666 1.18868,0.65678 1.0083,0.5689 1.23494,0.92968 1.45695,0.9898 1.01755,0.4394 1.47546,0.57352 1.45232,0.56428 0.94817,0.41165 0.8603,0.68916 0.72616,0.80942 0.66603,0.67991 0.98055,1.01292 0.98518,1.02218 0.67528,0.70766 0.9158,0.91117 0.84179,1.07306 0.52266,1.07768 0.72616,1.64196 0.70303,1.63271 0.4579,1.05455 0.72616,1.56333 0.28677,0.73079 0.4209,1.09618 0.47177,1.14243 0.44402,0.87417 0.65679,0.86955 0.96667,1.13318 0.9713,1.08693 0.67529,0.73079 0.97592,0.83254 0.9528,0.74929 0.5689,0.55965 0.79092,0.80479 0.85104,0.8233 0.75392,0.61515 1.04993,0.58741 1.50782,0.74929 1.45233,0.69378 0.88342,0.4209 0.28676,0.14801 0.80017,0.44402 1.31357,0.73079 1.41068,0.78166 1.08693,0.59666 1.12394,0.6059 1.49857,0.80017 1.4107,0.75391 0.86492,0.46253 0.38389,0.23126 0.78629,0.57353 1.2812,0.9343 1.37832,0.97592 1.0638,0.68454 1.11006,0.5319 1.48007,0.62441 1.4107,0.56427 0.8973,0.3469 1.07305,0.17113 1.75297,0.41627 1.14243,0.32839 0.92505,0.37465 1.07305,0.72154 0.71691,0.5319 0.76317,0.58278 1.42457,1.10543 0.9158,0.69378 1.22569,0.65216 0.66603,0.46715 1.01755,0.72616 1.09156,0.73079 0.89729,0.48103 1.01293,0.26364 1.38757,0.24513 1.4107,0.19889 1.08693,0.13413 1.06843,0.0833 1.37832,0.0648 1.37832,0.0555 1.06843,0.0509 1.06843,0.0601 1.37832,0.0786 1.37832,0.0971 1.06843,0.12026 1.10081,0.24976 1.43845,0.38852 1.39219,0.3839 0.96205,0.24514 1.43845,0.17113 1.22106,0.10175 1.02681,0.24052 1.21181,0.18038 0.94355,-0.0509 1.39219,-0.12025 1.4477,-0.13876 1.11006,-0.11563 1.06843,-0.11101 1.37832,-0.15263 1.37832,-0.17113 1.06843,-0.17576 1.06843,-0.25439 1.37832,-0.37927 1.37832,-0.41627 1.06843,-0.36539 1.12856,-0.4949 1.48008,-0.71229 1.40145,-0.70304 0.88342,-0.47177 0.95743,-0.99443 0.76779,-0.83254 1.20256,-1.30432 1.20256,-1.30894 0.76316,-0.83717 0.9158,-1.1193 0.42552,-0.98055 0.63828,-1.54483 0.65216,-1.63271 0.46253,-1.24419 0.37927,-1.25807 0.45327,-1.65583 0.41627,-1.54945 0.26364,-0.93893 0.28676,-0.27289 0.85567,-0.49027 1.40145,-0.79554 1.49858,-0.80942 1.13781,-0.52265 1.06842,-0.25439 1.37833,-0.20813 1.37832,-0.17576 1.06843,-0.16651 1.06843,-0.27289 1.37832,-0.3839 1.37832,-0.35151 1.06843,-0.17114 1.06843,0.0879 1.37832,0.24514 1.37832,0.27289 1.06843,0.17113 1.06843,0.0833 1.37832,0.074 1.37832,0.037 1.06843,-0.0231 1.12856,-0.15264 1.48007,-0.26826 1.40145,-0.28677 0.88804,-0.19888 1.03143,-0.5689 -1.03143,-1.13781 -0.95279,-0.67066 -1.50321,-1.02681 -1.49857,-1.02217 -0.93893,-0.65679 -0.80479,-0.88804 0.80479,-0.82329 0.4579,-0.81405 0.69841,-1.29044 0.68454,-1.38294 0.41627,-1.09618 0.17113,-1.18869 0.0971,-1.60496 0,-1.5587 -0.12025,-1.04993 -1.08693,-1.25807 -1.32282,-1.0638 -0.57353,-0.64291 -0.76316,-0.87879 -0.75854,-0.88805 -0.56428,-0.67066 -1.02681,-1.4662 -1.21181,-1.29969 -0.94355,-0.31914 -1.39219,-0.30527 -1.4477,-0.25901 -1.11006,-0.17113 -1.07768,-0.10176 -1.39682,-0.0833 -1.38295,-0.0833 -1.03142,-0.111 -0.99443,-0.23589 -1.25344,-0.36539 -1.16556,-0.3654 -0.73541,-0.23588 -0.74466,-0.33765 -0.87417,-0.61515 -1.40145,-0.99905 -1.4847,-1.01756 -1.13319,-0.66603 -1.12393,-0.36077 -1.47545,-0.32839 -1.39682,-0.27289 -0.89267,-0.19426 -1.14706,-0.61053 -0.56428,-0.95743 -0.85104,-1.54945 -0.83717,-1.64658 -0.51803,-1.25344 -0.18963,-1.24882 -0.0879,-1.64196 -0.0462,-1.54483 -0.0555,-0.96667 -0.59203,-0.80017 -0.77704,-0.88342 -0.59666,-0.67066 -0.65679,-0.74003 -0.65678,-0.74004 -0.59666,-0.67529 -0.79091,-0.89267 -0.82329,-0.92967 -0.8788,-0.86029 -0.66141,-0.64754 -0.74003,-0.71228 -0.75854,-0.71229 -0.72617,-0.65678 -1.12855,-0.88342 -1.06843,-0.44865 -1.37832,-0.37927 -1.37832,-0.29139 -1.06843,-0.18964 -1.06843,-0.0833 -1.37833,-0.0324 -1.37832,-0.037 -1.06843,-0.10175 -1.06843,-0.3099 -1.37832,-0.49952 -1.37832,-0.4949 -1.06843,-0.29602 -1.06843,-0.0879 -1.37832,-0.009 -1.37832,0.0324 -1.06843,0.0416 -1.11005,0.1295 -1.4477,0.22201 -1.3922,0.16651 -0.94355,-0.0324 -1.22106,-1.24419 -1.03605,-1.45695 -1.21182,-1.04993 -1.42919,-1.06381 -1.03143,-0.6244 -1.50783,-0.86955 -1.46157,-0.83254 -0.89268,-0.52265 -0.32376,-0.44402 -0.70766,-1.01293 -0.55041,-0.79092 -0.6059,-0.86954 -0.61053,-0.87417 -0.55503,-0.80017 -0.73541,-1.05455 -0.8048,-1.09618 -0.95279,-0.83254 -0.72617,-0.61979 -0.79554,-0.67528 -0.79091,-0.67066 -0.71692,-0.60591 -0.91117,-0.77241 -0.18963,-0.12488 -0.84179,-0.39315 -1.38758,-0.64753 -1.45232,-0.70766 -1.02218,-0.57353 -0.78166,-0.66141 -0.9158,-0.91117 -0.85567,-0.8973 -0.59665,-0.61515 -0.80017,-0.8603 -0.94355,-0.70303 -0.92042,-0.26827 -1.39682,-0.31914 -1.46158,-0.30989 -1.11468,-0.24051 -1.06843,-0.25902 -1.37832,-0.34226 -1.37832,-0.30989 -1.06843,-0.16189 -1.06843,0.037 -1.37831,0.14801 -1.37832,0.16651 -1.06843,0.0879 -1.06843,-0.0185 -1.37832,-0.0648 -1.37832,-0.0833 -1.06843,-0.0694 -1.06843,-0.0879 -1.37832,-0.12488 -1.37832,-0.12025 -1.06843,-0.0694 -1.06843,-0.0278 -1.37832,-0.009 -1.37832,0.0231 -1.06843,0.074 -1.08231,0.19426 -1.40145,0.31915 -1.38294,0.37464 -1.03143,0.35614 -1.0453,0.47178 -1.34595,0.68453 -1.17018,0.77242 -0.52728,0.73078 0.52728,1.06843 0.5689,0.74929 0.65216,0.81867 0.65216,0.82329 0.56428,0.77704 0.51802,1.16556 -0.62903,1.01755 -1.34132,1.25344 -1.42457,1.17019 -0.88805,0.75854 -0.67065,1.20256 -0.74467,0.50877 -1.19331,0.75392 -1.28119,0.77241 -1.0083,0.56428 -1.09618,0.49028 -1.4847,0.6059 -1.41533,0.56891 -0.89729,0.37927 -1.01293,0.75854 -0.71229,0.43477 -1.11005,0.66603 -1.16556,0.71229 -0.89267,0.57353 -0.8973,0.65678 -1.17943,0.8973 -1.11931,0.87417 -0.71691,0.59203 -0.97593,1.35057 -0.9528,0.75854 -0.72153,0.55502 -0.78629,0.60129 -0.7863,0.59665 -0.71691,0.53653 -0.93429,0.69378 -0.70767,0.31452 -0.77241,0.75391 -1.23494,1.23032 -1.27656,1.25344 -0.90193,0.81866 -1.49395,0.81867 -1.318194,0.5319 -0.95742,0.16651 -1.12856,0.36077 -1.00368,0.70766 -0.726165,0.54115 -0.78167,0.59666 -0.77704,0.60128 -0.69841,0.5504 -0.90654,0.74467 -0.4764,1.1378"
         style="display:inline;overflow:hidden;fill:#00ff00;stroke:#000000;stroke-width:2;stroke-linejoin:round;stroke-opacity:0.35;text-rendering:optimizeLegibility" />
      <path
         inkscape:connector-curvature="0"
         id="path98-8"
         d="m 519.09891,648.79647 0.71692,1.45695 0.79554,1.64658 0.36539,1.16556 0.5689,1.13781 0.73542,0.58741 1.15168,0.79091 1.19794,0.80017 0.86954,0.6059 0.73079,0.60128 0.8973,0.77242 0.85104,0.74004 0.60128,0.49952 0.83254,0.58278 0.98518,0.57816 0.96205,0.50415 1.45695,0.74929 1.47082,0.75853 1.00368,0.53653 1.34594,0.8603 1.14244,0.82791 1.10543,1.02218 1.30432,1.13318 1.02217,0.67066 1.51246,0.94355 1.4662,0.90192 0.89267,0.55041 0.28676,0.18963 0.84179,0.93892 0.65679,0.73079 0.73078,0.81867 0.74004,0.84642 0.68454,0.80941 0.9528,1.25807 0.55503,1.18868 0.5504,1.54021 0.5134,1.52633 0.44865,1.15168 0.61515,1.13318 0.85567,1.4477 0.82792,1.35057 0.5319,0.83717 0.74467,0.63366 0.73541,0.40702 1.17018,0.62441 1.25344,0.61515 0.99443,0.37927 1.03143,0.10638 1.38294,0.009 1.39682,0.005 1.07768,0.0879 1.12856,0.31451 1.47545,0.50878 1.40145,0.53653 0.89267,0.38852 1.11006,1.41532 0.68453,1.05455 0.49953,0.78629 0.55503,0.8603 0.57353,0.86029 0.55502,0.78629 0.92043,1.05456 1.01755,0.48565 1.38757,0.36076 1.40607,0.29139 1.08693,0.27752 1.07768,0.42089 1.3922,0.58278 1.38295,0.59204 1.04067,0.45327 1.03606,0.45327 1.32281,0.59203 1.23494,0.55503 0.76317,0.34227 0.53652,0.23126 0.86492,0.49027 1.40145,0.79555 1.49395,0.82329 1.13319,0.5689 1.11005,0.4024 1.45233,0.44865 1.39219,0.41627 0.93893,0.29601 1.12855,0.4764 0.95743,0.45327 1.29044,0.60591 1.5217,0.67991 0.9898,0.37464 1.41995,0.51803 1.43845,0.53653 1.0453,0.43477 0.91117,0.50415 1.11931,0.68916 1.04068,0.65679 0.67991,0.41164 1.14706,0.33764 1.17018,-0.037 1.27657,-0.30064 1.12393,-1.39219 0.67529,-0.88805 0.64753,-0.61053 0.9528,-0.44402 1.3922,-0.50415 1.44307,-0.43015 1.10543,-0.22201 1.06843,0.0648 1.37832,0.24514 1.37832,0.26826 1.06843,0.13876 1.06843,-0.0278 1.37832,-0.10638 1.37832,-0.14339 1.06843,-0.148 1.13319,-0.16189 1.48932,-0.23588 1.40145,-0.33765 0.86954,-0.47177 0.33765,-0.98518 0.15725,-1.54482 0.0786,-1.63271 0.0971,-1.24419 0.16189,-1.22106 0.21738,-1.59109 0.27289,-1.53557 0.32377,-1.05456 0.59665,-0.71691 0.92043,-0.74929 0.9713,-0.69378 0.75853,-0.54578 0.8048,-0.61053 1.07305,-0.79554 1.03605,-0.76779 0.68454,-0.52266 1.29969,-1.30894 0.87417,-0.81404 1.35057,-1.25344 1.33207,-1.24419 0.82329,-0.78629 0.51803,-0.84642 0.78629,-0.86954 0.6059,-0.66141 0.66604,-0.72616 0.66603,-0.72616 0.60591,-0.67066 0.80016,-0.90655 0.76317,-1.45695 0.30064,-0.79092 0.44402,-1.20256 0.39777,-1.19331 0.17576,-0.75854 -1.31819,-0.88804 -0.9713,-0.81867 -0.72616,-0.61978 -0.79092,-0.67529 -0.78629,-0.67528 -0.70766,-0.61053 -0.91117,-0.78629 -0.32377,-0.33764 -0.79554,-0.51341 -1.29969,-0.82791 -1.39682,-0.79092 -1.07768,-0.40239 -1.10081,0.1295 -1.46158,0.42552 -1.40144,0.50415 -0.9343,0.35615 -1.01293,0.48565 -0.86029,0.63366 -0.57816,0.66603 -0.80941,1.01755 -0.86955,0.97593 -0.76316,0.52727 -1.0268,-0.0231 -1.4662,-0.30064 -1.44308,-0.40702 -0.96205,-0.3469 -1.07768,-0.96667 -0.91117,-1.14243 -0.5874,-0.66604 -0.81867,-0.9343 -0.84179,-0.93892 -0.66141,-0.67066 -0.69841,-0.53653 -0.92505,-0.62903 -1.53096,-1.03143 -0.80016,-0.82791 -0.94355,-0.79555 -0.92042,-0.40702 -1.39682,-0.54577 -1.46158,-0.52266 -1.11468,-0.34226 -1.09156,-0.17576 -1.41532,-0.14801 -1.38757,-0.13876 -1.00368,-0.148 -0.85567,-0.27752 -1.0268,-0.41164 -1.5957,-0.66604 -1.41533,-0.37927 -0.90654,-0.18501 -1.39683,-0.28214 -1.47082,-0.28676 -1.11931,-0.19426 -1.0823,-0.0879 -1.40145,-0.0694 -1.38295,-0.12026 -1.0268,-0.24976 -0.96205,-0.66603 -1.20256,-1.07306 -1.11931,-1.08693 -0.71228,-0.71691 -0.8973,-1.30894 -0.55503,-0.79554 -0.85104,-1.22107 -0.87417,-1.23493 -0.62441,-0.8418 -0.94817,-1.04068 -1.04068,-0.98517 -0.82792,-0.64291 -1.22106,-0.90655 -1.18869,-0.97592 -0.73541,-0.85104 -0.27289,-1.14244 -0.12488,-1.63271 -0.0509,-1.5957 -0.0509,-1.03606 -0.4209,-1.62345 -0.24514,-1.73447 -0.13876,-1.11006 -0.0971,-0.93429 -0.009,-1.12394 0.0277,-1.56333 -0.0509,-1.57258 -0.23589,-1.14243 -0.74929,-0.99905 -1.23031,-1.22569 -1.27657,-1.14243 -0.89729,-0.74467 -1.40607,-0.72616 -1.24882,-0.55965 -1.0268,-1.03606 -1.21181,-1.09618 -0.94355,-0.4949 -1.3922,-0.65216 -1.4477,-0.57815 -1.11005,-0.28214 -1.06843,0.12026 -1.37833,0.36539 -1.37832,0.44865 -1.06843,0.37464 -1.06843,0.4579 -1.37832,0.65678 -1.37832,0.62904 -1.06843,0.37002 -1.13318,0.0601 -1.48933,-0.074 -1.40144,-0.0971 -0.86955,-0.0185 -0.61053,0.84642 -0.64753,1.03143 -0.49028,0.78629 -0.54115,0.86492 -0.54115,0.86954 -0.4949,0.79554 -0.66604,1.05455 -0.89729,1.18407 -0.93893,0.55502 -1.49395,0.82792 -1.5032,0.83254 -0.96205,0.56891 -0.68453,0.69378 -0.57816,0.74004 -0.66141,0.67529 -1.00367,1.01292 -1.07768,1.00368 -0.88805,0.64291 -1.0083,0.32839 -1.38757,0.27289 -1.4107,0.18963 -1.08693,0.074 -1.06843,-0.0925 -1.37832,-0.22663 -1.37832,-0.26364 -1.06843,-0.19889 -1.10543,-0.23589 -1.43845,-0.32376 -1.3922,-0.24976 -0.95742,-0.0139 -1.40145,1.14706 -0.66141,0.86954 -0.48565,0.79092 -0.44402,1.11931 -0.53653,1.64196 -0.4949,1.60958 -0.32377,1.03143 -0.55502,1.35056 -0.30989,0.8233 -0.47178,1.26269 -0.4579,1.23493 -0.27289,0.74004"
         style="display:inline;overflow:hidden;fill:#00ff00;stroke:#000000;stroke-width:2;stroke-linejoin:round;stroke-opacity:0.35;text-rendering:optimizeLegibility" />
      <path
         inkscape:connector-curvature="0"
         id="path100-6"
         d="m 514.02986,766.37366 0.28214,0.68453 0.4764,1.14706 0.48565,1.17944 0.32376,0.78629 0.62903,1.60496 0.75392,0.30064 1.20256,0.36539 1.29044,0.35152 1.01755,0.24976 1.04068,0.20351 1.38295,0.23589 1.39682,0.22663 1.07768,0.18039 1.06843,0.18038 1.37832,0.23589 1.37832,0.25901 1.06843,0.24977 1.13318,0.40239 1.48933,0.60128 1.40145,0.58741 0.86492,0.37002 0.57353,0.40239 0.76316,0.51803 1.23031,0.83254 1.31357,0.87417 1.0083,0.64753 1.04531,0.60129 1.38757,0.77241 1.30431,0.71691 0.80017,0.4394 0.36539,0.25439 0.89267,0.44402 1.45695,0.72154 1.50783,0.77241 1.04068,0.59203 0.70766,0.57353 0.78167,0.74929 1.26269,1.29507 1.06842,1.07305 1.07306,1.12393 0.60128,0.63829 0.82792,0.88342 0.82329,0.92504 0.59666,0.76779 0.50415,0.9343 0.6059,1.29507 0.56428,1.25344 0.37002,0.80479 0.70766,1.11931 0.41627,1.0268 0.63829,1.62346 0.66603,1.65121 0.4949,1.1008 0.92042,1.24419 1.04993,1.05456 0.78167,0.67065 1.14706,0.92968 1.12855,0.90654 0.73079,0.59203 1.11006,1.05456 0.91579,0.4949 1.44308,0.74004 1.4847,0.75391 1.04993,0.54115 0.80941,0.44403 0.94818,0.5319 1.48932,0.84179 0.75392,0.41627 0.88804,0.49028 0.94818,0.51802 1.4477,0.78629 1.47545,0.8048 1.0268,0.57352 0.74929,0.44403 0.84642,0.51802 1.35057,0.85105 0.89267,0.66141 1.05455,0.68916 0.92967,0.45327 1.39683,0.64291 1.45694,0.63366 1.11469,0.42552 1.1008,0.24976 1.43383,0.24051 1.39219,0.21739 0.97593,0.18038 1.56333,0.48103 1.32282,0.5319 0.92042,0.65678 1.08693,0.81867 0.9713,0.60591 1.45232,0.89267 1.4662,0.88342 1.00368,0.57353 1.40607,0.57353 1.19331,0.39777 1.05456,0.43477 1.24419,0.41165 0.94817,0.14338 1.3922,0.17113 1.4477,0.18039 1.11005,0.17575 1.06843,0.26364 1.37832,0.3839 1.37832,0.39777 1.06843,0.30526 1.06843,0.30064 1.37832,0.39315 1.37832,0.37464 1.06843,0.24052 1.06843,0.12488 1.37832,0.0971 1.37833,0.0648 1.06842,0.0278 1.06843,-0.0278 1.37833,-0.074 1.37832,-0.0925 1.06843,-0.0786 1.06843,-0.0925 1.37832,-0.13413 1.37832,-0.15264 1.06843,-0.14338 1.07768,-0.18963 1.39219,-0.27289 1.38295,-0.31452 1.0453,-0.31914 1.04068,-0.52728 1.33207,-0.79554 1.23956,-0.78166 0.76779,-0.49028 0.51803,-0.48565 0.86492,-0.9343 0.66603,-0.72153 0.73079,-0.79554 0.73079,-0.79554 0.66603,-0.72617 0.85567,-0.94354 0.38389,-0.67529 0.40703,-0.83254 0.64753,-1.3367 0.66603,-1.43382 0.4579,-1.12393 0.30989,-1.21181 0.33764,-1.63271 0.32377,-1.56333 0.26827,-1.00368 0.5874,-0.79091 0.88805,-0.58278 0.92042,-0.59203 1.41532,-0.87417 1.47083,-0.86955 1.08693,-0.57815 0.9898,-0.34227 1.24881,-0.32839 1.16094,-0.27289 0.73078,-0.18039 0.76317,-0.29601 0.91579,-0.54578 1.4662,-0.88805 1.49858,-0.92504 1.01755,-0.65679 1.32282,-1.05918 1.12393,-1.03142 1.21644,-1.32745 1.23031,-1.37832 1.29507,-1.29506 0.73079,-0.75392 0.5504,-0.65216 0.54578,-0.86491 0.70304,-1.22107 0.65678,-1.19331 0.40702,-0.78166 0.32377,-1.35057 -0.32377,-0.31452 -0.82792,-0.95742 -0.64291,-0.74929 -0.71228,-0.82329 -0.71229,-0.82792 -0.64753,-0.75391 -0.83717,-0.97593 -0.51803,-0.65216 -0.86492,-0.33302 -1.40144,-0.49952 -1.49395,-0.4949 -1.13319,-0.31914 -1.06843,-0.14339 -1.37832,-0.10175 -1.37832,-0.10176 -1.06843,-0.14338 -1.12393,-0.31914 -1.47545,-0.4949 -1.39682,-0.50415 -0.8973,-0.34689 -1.24419,-0.94818 -0.66603,-0.5134 -1.0083,-0.78166 -1.08693,-0.77704 -0.89267,-0.50415 -1.02681,-0.24052 -1.41532,-0.19426 -1.41995,-0.18038 -1.03143,-0.20814 -0.90654,-0.37464 -1.11006,-0.55503 -1.03605,-0.59203 -0.67529,-0.48102 -0.67528,-1.25344 -0.49028,-1.32282 -0.74928,-1.29969 -0.78167,-1.53096 -0.33764,-1.11005 -0.43477,-1.62346 -0.44403,-1.60496 -0.35152,-1.0638 -0.82329,-1.11931 -0.9713,-0.94817 -0.68453,-0.70304 -0.99905,-0.99905 -0.99443,-0.98518 -0.67066,-0.65215 -0.71229,-0.72154 -0.83716,-0.54578 -0.91118,-0.30527 -1.39682,-0.40702 -1.4662,-0.36076 -1.1193,-0.17114 -1.06843,0.0879 -1.37832,0.25439 -1.37833,0.29601 -1.06843,0.22202 -1.06842,0.21276 -1.37833,0.28214 -1.37832,0.26363 -1.06843,0.14801 -1.06843,0.005 -1.37832,-0.0694 -1.37832,-0.0786 -1.06843,-0.0231 -1.06843,0.14801 -1.37832,0.25901 -1.37832,0.18964 -1.06843,-0.0648 -1.12856,-0.62441 -1.48007,-1.08693 -1.40145,-1.12856 -0.88804,-0.74466 -1.07306,-1.43383 -0.62903,-1.07305 -0.46252,-0.80017 -0.50416,-0.86954 -0.49952,-0.86492 -0.45327,-0.78629 -0.60591,-1.01293 -0.67066,-0.46252 -0.70766,-0.9158 -0.53653,-0.71229 -0.59203,-0.78629 -0.59203,-0.79091 -0.54578,-0.73079 -0.74004,-1.00368 -0.65215,-0.96205 -0.53191,-0.85104 -0.43939,-0.72154 -0.63829,-1.05455 -0.66603,-1.0638 -0.52728,-0.75392 -1.22569,-1.19331 -1.39219,-1.15168 -0.9158,-0.67529 -1.30894,-0.93892 -1.26732,-0.8973 -0.79091,-0.5504 -0.61053,-0.31452 -0.92505,-0.90654 -0.71229,-0.70766 -0.78629,-0.78167 -0.78629,-0.78166 -0.72153,-0.70767 -0.95743,-0.90654 -1.12856,-0.29602 -1.72983,-0.43014 -1.12394,-0.27289 -0.91579,-0.20351 -1.01756,-0.21276 -1.38757,-0.27752 -1.41069,-0.24514 -1.08694,-0.111 -1.06843,0.0971 -1.37832,0.23126 -1.37832,0.24051 -1.06843,0.12488 -1.06843,-0.0277 -1.37832,-0.10175 -1.37832,-0.12951 -1.06843,-0.10175 -1.06843,-0.10176 -1.37832,-0.14338 -1.37832,-0.13413 -1.06843,-0.0833 -1.06843,-0.0509 -1.37832,-0.0462 -1.37832,-0.009 -1.06843,0.0648 -1.12856,0.24514 -1.4847,0.41627 -1.40144,0.42553 -0.8788,0.28213 -0.82329,0.55041 0.82329,1.18406 0.72616,0.77241 1.14244,1.19331 1.05455,1.26732 0.46252,0.98517 -0.46252,1.04993 -1.05455,1.40608 -1.14244,1.33206 -0.72153,0.83717 -0.78167,0.78167 -0.73079,0.69378 -1.15631,1.09156 -1.23956,1.09618 -0.98518,0.70766 -1.07305,0.34227 -1.45695,0.27751 -1.41532,0.22201 -0.94818,0.17114 -1.1193,0.41164 -0.94818,0.39315 -1.29969,0.30064 -1.53095,0.48102 -1.01293,0.56891 -1.46157,0.88342 -1.4477,0.90192 -0.9713,0.61978 -1.16094,0.79092 -0.98055,0.85567 -0.58278,0.76316 -0.79554,1.13781 -0.79554,1.13781 -0.57815,0.75854 -1.04068,0.73541 -1.02218,0.86954 -0.55965,1.08231 -0.76317,1.67433 -0.73078,1.64659 -0.45328,0.99905 -0.32376,0.27289 -0.85567,0.37002 -1.40145,0.59203 -1.49858,0.62441 -1.13781,0.46252 -1.1193,0.41627 -1.4662,0.52265 -1.39682,0.50878 -0.91118,0.36539 -0.98517,0.70766 -0.58278,0.55966"
         style="display:inline;overflow:hidden;fill:#00ff00;stroke:#000000;stroke-width:2;stroke-linejoin:round;stroke-opacity:0.35;text-rendering:optimizeLegibility" />
      <path
         inkscape:connector-curvature="0"
         id="path102-9"
         d="m 391.09826,641.25133 -0.4579,0.92967 -0.76316,1.54946 -0.72154,1.66046 -0.33764,1.26269 0.22664,1.23956 0.5689,1.62809 0.65216,1.54482 0.48565,0.98981 0.82792,0.72153 1.0638,0.61053 0.98518,0.8233 0.71691,0.6059 0.77241,0.65679 0.76317,0.65215 0.68916,0.58741 0.87417,0.74466 0.0971,0.0648 0.85567,0.43477 1.42457,0.72153 1.50783,0.77704 1.10543,0.60129 0.9898,0.63365 1.24881,0.84642 1.16094,0.80942 0.73079,0.51802 0.76316,0.67529 0.90192,0.47177 1.4477,0.73079 1.49395,0.76316 1.04993,0.56428 0.79092,0.4949 0.91579,0.61979 1.4477,1.07768 0.92505,0.96667 0.81404,1.0638 0.90192,1.54946 0.51803,0.97592 0.41627,0.85105 0.46252,1.14243 0.62441,1.63271 0.60591,1.59571 0.41164,1.03605 0.37927,0.86954 0.57816,0.73542 0.88342,0.78166 1.39682,1.17481 1.38295,1.14706 0.84641,0.69379 0.3839,0.18963 0.99442,-0.18963 0.69842,-0.23589 1.08693,-0.37927 1.17018,-0.36539 0.94355,-0.19426 1.0823,0.0231 1.48933,0.13876 1.42457,0.18038 0.8973,0.14339 0.8788,0.69841 0.78629,0.93892 0.59203,0.71691 0.64753,0.79092 0.64753,0.79091 0.58741,0.71692 0.75391,0.92504 0.34227,0.52728 0.85104,0.89267 0.66141,0.68916 0.73541,0.75854 0.73542,0.75854 0.67528,0.68916 0.89267,0.90192 0.97593,0.71691 0.70303,0.35152 1.09618,0.5319 1.17481,0.56428 0.94355,0.45327 1.07306,0.49953 1.4662,0.67991 1.41995,0.66603 0.93429,0.4579 0.92968,0.62441 0.79091,0.57815 1.45695,0.87417 0.92505,0.51803 0.79554,0.3839 0.9898,0.32376 1.38757,0.39777 1.42457,0.40702 1.09619,0.3469 1.06843,0.45327 1.37832,0.63366 1.37832,0.62903 1.06843,0.43477 1.06843,0.32839 1.37832,0.37002 1.37832,0.31452 1.06843,0.16651 1.13318,-0.0185 1.48933,-0.12489 1.40144,-0.1665 0.86955,-0.13414 0.61053,-0.74003 0.75391,-0.96205 0.56891,-0.73079 0.63828,-0.81404 0.66141,-0.8418 0.63828,-0.80479 1.01755,-1.24881 1.05456,-1.17944 0.68453,-0.74003 0.72617,-0.78167 0.72616,-0.78166 0.67528,-0.74004 1.03143,-1.17944 0.9343,-1.23956 0.5689,-0.79554 0.58741,-0.83255 0.5689,-0.81404 0.50878,-0.73078 0.69378,-0.9898 1.03143,-1.35057 0.88805,-0.71692 1.40144,-1.09155 1.48008,-1.00368 1.12856,-0.46252 1.09155,0.35152 1.41995,0.85566 1.38757,0.96205 0.9898,0.66141 0.80942,0.46253 0.94817,0.54115 1.48933,0.79092 1.64658,0.25438 0.34227,-0.25438 0.85567,-0.85567 0.66603,-0.67066 0.73542,-0.74004 0.73541,-0.74466 0.67528,-0.67991 0.88805,-0.89267 0.87879,-0.8233 -0.111,-0.86954 -0.26364,-1.38757 -0.29601,-1.38757 -0.20814,-0.87417 -0.68916,-0.88805 0.68916,-0.40239 0.9158,-0.17114 1.47082,-0.25439 1.5032,-0.32839 1.00831,-0.38852 0.67991,-0.74929 0.73078,-1.16093 0.58741,-1.17019 0.24051,-0.78166 -0.87417,-0.85105 -1.36444,-0.83716 -0.78167,-0.76317 -1.11931,-1.13781 -1.09618,-1.11468 -0.71691,-0.69841 -1.18406,-0.65216 -0.82792,0.16651 -0.98517,0.48565 -0.62904,0.60128 -0.90192,0.9528 -0.90654,0.98055 -0.64291,0.69379 -1.04068,1.05918 -1.02218,1.11468 -0.5504,0.87417 -0.74929,1.28581 -0.80479,1.18869 -0.72616,0.59666 -1.03606,-0.23127 -1.49857,-0.71228 -1.45695,-0.82792 -0.90192,-0.57353 -0.65216,-1.60496 -0.79554,-0.89729 -0.60591,-0.65679 -0.67066,-0.71228 -0.67528,-0.70766 -0.62441,-0.64291 -0.86492,-0.85567 -0.9343,-0.57353 -0.84179,-0.35614 -1.4292,-0.80479 -0.90192,-0.52728 -0.78166,-0.48103 -0.98518,-0.73078 -1.38757,-1.06843 -1.42457,-1.01756 -1.09619,-0.58278 -1.06842,-0.074 -1.37833,0.15726 -1.37832,0.25901 -1.06843,0.22664 -1.1008,0.33302 -1.43383,0.50877 -1.39219,0.45327 -0.9713,0.16189 -1.54021,-0.9713 -1.30894,-1.24419 -0.93892,-0.90192 -1.10543,-0.91117 -0.9343,-0.52728 -1.3922,-0.72616 -1.45232,-0.68916 -1.11006,-0.4024 -1.09618,-0.0555 -1.4292,0.10175 -1.39219,0.12026 -0.97593,0 -1.67434,-0.4764 -1.25343,-0.93892 -0.0648,-1.02681 0.12951,-1.5957 0.14801,-1.63734 -0.0185,-1.14243 -0.3654,-0.83717 -0.62903,-0.9528 -0.67066,-0.88804 -0.4949,-0.63366 -0.91117,-1.08693 -0.98055,-1.00368 -1.37832,-1.15631 -0.86492,-0.65678 -0.75854,-0.49027 -1.03605,-0.46253 -1.48471,-0.57815 -1.44769,-0.55503 -0.92505,-0.38852 -1.14706,-1.11931 1.14706,-1.35057 0.41627,-0.74004 0.60128,-1.1193 0.60128,-1.20719 0.40702,-0.9898 0.28214,-1.11468 0.30527,-1.53096 0.26364,-1.5587 0.15725,-1.19794 0.0971,-1.21644 0.0786,-1.58645 -0.005,-1.53558 -0.15264,-1.06843 -0.4949,-0.78167 -0.83254,-0.86029 -0.9343,-0.80017 -0.80016,-0.59665 -0.98055,-0.5504 -1.38757,-0.67066 -1.4292,-0.65216 -1.09618,-0.49028 -1.06843,-0.5134 -1.37832,-0.66141 -1.37832,-0.58278 -1.06843,-0.27289 -1.12856,0.18501 -1.48008,0.48103 -1.40144,0.5319 -0.88805,0.34227 -1.03143,0.48565 -0.69378,0.37002 -1.07768,0.57815 -1.15631,0.58278 -0.9343,0.38852 -1.06843,0.19426 -1.4662,0.16651 -1.42457,0.18038 -0.9343,0.24052 -0.92967,1.21181 -0.79092,1.49395 -0.64291,0.89267 -0.92967,1.26732 -0.93892,1.23956 -0.66141,0.80017 -1.04531,0.70303 -1.01755,0.49953 -1.32744,0.74003 -1.5032,0.94818 -0.90655,0.76779 -1.28582,1.14243 -1.23956,1.11468 -0.77704,0.68454 -0.68916,0.36077 -0.87417,0.23126 -1.40145,0.35614 -1.48932,0.37002 -1.13319,0.26826 -1.06843,0.25439 -1.37832,0.32839 -1.37832,0.27752 -1.06843,0.111 -1.1193,-0.22663 -1.4662,-0.4579 -1.39683,-0.39777 -0.91117,-0.0416 -0.51802,0.68916 -0.4579,1.24882 -0.35615,1.27194 -0.21276,0.75854"
         style="display:inline;overflow:hidden;fill:#00ff00;stroke:#000000;stroke-width:2;stroke-linejoin:round;stroke-opacity:0.35;text-rendering:optimizeLegibility" />
      <path
         inkscape:connector-curvature="0"
         id="path104-7"
         d="m 99.285066,648.46704 1.022184,0.68453 1.42457,0.96205 1.02218,0.70304 1.5032,1.03605 1.4662,1.01293 0.90655,0.6244 0.62903,0.37927 0.76316,0.3654 1.22569,0.58278 1.29507,0.63828 0.98055,0.54578 0.9528,0.69378 1.23956,0.98518 1.16556,0.96205 0.73541,0.63365 0.80479,1.11931 1.00368,-0.29139 0.83254,-0.82792 -0.16188,-0.98055 -0.4209,-1.54483 -0.4579,-1.6327 -0.27751,-1.24419 -0.074,-1.17944 -0.0139,-1.5217 0.0231,-1.5217 0.0416,-1.17944 0.0833,-1.17944 0.13875,-1.5217 0.15726,-1.5217 0.13876,-1.17944 0.21276,-1.22568 0.31452,-1.60496 0.26364,-1.54021 0.0647,-1.03605 -0.69841,-1.4292 -1.17481,-0.85104 -0.9898,0.19426 -1.49858,0.50878 -1.48008,0.5689 -0.92967,0.37464 -0.87879,0.63366 -0.74929,0.60591 -1.17944,0.95742 -1.22106,0.9898 -0.86492,0.69841 -1.44307,1.10543 -1.29044,1.04993 -1.09156,1.25807 -1.06843,1.31357 -0.55965,0.64753 -0.75392,0.86954 -1.133184,1.30895"
         style="display:inline;overflow:hidden;fill:#00ff00;stroke:#000000;stroke-width:2;stroke-linejoin:round;stroke-opacity:0.35;text-rendering:optimizeLegibility" />
      <path
         inkscape:connector-curvature="0"
         id="path108-0"
         d="m 125.96752,649.19875 1.11006,0.92967 0.93892,0.62903 1.48008,0.9713 1.49395,0.98055 0.98055,0.64753 0.9713,0.69841 0.82329,0.54578 1.41995,0.64291 1.67434,0.77241 1.03605,0.57816 1.47545,0.84642 1.44307,0.84179 0.9343,0.55965 0.78629,0.4949 0.66604,0.66604 0.70303,0.9528 1.05456,1.49857 1.03605,1.48471 0.64753,0.91579 0.53653,0.55041 0.76316,0.70766 1.23494,1.13781 1.32282,1.09618 1.03605,0.58278 1.10543,-0.074 1.48471,-0.41164 1.41532,-0.52728 0.88804,-0.4209 0.66604,-1.03605 0.19426,-1.05455 -0.28677,-0.77704 -0.57353,-0.91118 -0.48565,-0.72153 -0.73541,-1.06843 -0.76779,-1.10081 -0.57353,-0.82792 -0.54115,-0.77241 -0.68916,-0.98518 -0.65678,-0.94817 -0.44403,-0.67066 -0.5874,-0.92967 -0.40702,-1.09618 -0.0833,-1.02218 -0.0509,-1.5402 -0.0185,-1.60959 0.0185,-1.23031 0.10639,-1.23956 0.185,-1.62346 0.19889,-1.54483 0.14338,-1.00368 0.4949,-1.60495 0.28214,-0.71692 0.43015,-1.0638 0.48565,-1.12393 0.45327,-0.89267 0.67529,-0.98981 0.99442,-1.34131 0.9713,-1.28582 0.60591,-0.81404 0.4764,-0.9713 0.80941,-0.74466 1.30894,-1.16556 1.35519,-1.17481 0.94355,-0.78167 1.43845,-0.80479 1.25806,-0.73541 0.51803,-0.60591 0.64753,-0.88342 0.61053,-0.8973 0.4209,-0.65678 0.68916,-1.29044 0.41627,-1.07306 -1.11005,-0.44402 -0.96668,0.0416 -1.5217,0.10638 -1.5032,0.11563 -0.90655,0.074 -0.11563,0.10638 -0.84642,0.78629 -0.66603,0.61979 -0.74467,0.68453 -0.75853,0.68916 -0.71691,0.63366 -1.04993,0.85104 -0.82791,0.39315 -0.98981,0.30526 -1.54945,0.44403 -0.70304,0.49952 -0.82791,0.66141 -0.96205,0.61516 -1.48008,0.9343 -1.4847,0.93429 -0.96667,0.61516 -0.88805,0.60591 -0.75391,0.53652 -1.51246,1.04531 -0.95279,0.66141 -0.78629,0.5504 -0.96205,0.68916 -1.34132,0.96205 -1.28119,0.92505 -0.79554,0.57353 -0.51803,0.42089 -0.92505,0.68916 -0.71228,0.5319 -0.78629,0.58741 -0.79092,0.59203 -0.72154,0.54578 -0.96205,0.74466 -1.12855,1.28582 -0.74004,0.84642 -1.14244,1.30431 -1.14243,1.29969 -0.74004,0.83255 -1.11005,1.1193"
         style="display:inline;overflow:hidden;fill:#00ff00;stroke:#000000;stroke-width:2;stroke-linejoin:round;stroke-opacity:0.35;text-rendering:optimizeLegibility" />
      <path
         inkscape:connector-curvature="0"
         id="path110-9"
         d="m 140.72256,686.21938 0.10176,0.98518 0.17113,1.64195 0.20814,1.67897 0.21276,1.09618 0.70766,0.98055 1.05455,0.83254 0.92043,0.75391 1.39682,1.11469 1.46157,1.07768 1.11468,0.6429 1.11469,0.24977 1.45695,0.12025 1.39682,-0.0648 0.92505,-0.30527 0.55965,-0.92967 0.5319,-1.54945 0.44402,-1.66046 0.29602,-1.26269 0.23589,-1.23957 0.24513,-1.62808 0.15726,-1.54483 -0.0277,-0.9898 -0.99443,-0.91117 -1.45232,-0.44402 -0.9528,-0.0278 -1.3922,0.0694 -1.44307,0.11101 -1.10543,0.10175 -1.10543,0.12951 -1.44308,0.19889 -1.39219,0.20351 -0.9528,0.14338 -1.42457,0.24051 -1.02218,0.18501"
         style="display:inline;overflow:hidden;fill:#00ff00;stroke:#000000;stroke-width:2;stroke-linejoin:round;stroke-opacity:0.35;text-rendering:optimizeLegibility" />
      <path
         inkscape:connector-curvature="0"
         id="path112-1"
         d="m 159.48031,648.13528 0.75391,0.63828 1.25807,1.06843 1.31819,1.10543 0.92967,0.75391 1.51708,1.02681 1.33207,0.80941 0.93892,0.43015 1.10543,0.4579 0.9528,0.41627 1.42458,0.62441 1.46157,0.65215 1.05456,0.50416 0.89729,0.52265 1.09618,0.69378 1.02218,0.66604 0.67066,0.43939 1.20256,0.86492 0.71229,0.85567 1.09155,1.35982 1.09156,1.38757 0.71691,0.9343 0.62903,1.09618 0.65216,0.99443 0.77242,0.70303 1.17943,1.00368 1.17481,0.97593 0.75392,0.63365 1.01292,0.94818 0.88805,0.15725 1.40145,0.18501 1.48007,0.14339 1.12856,0.037 1.11931,-0.14801 1.46157,-0.29139 1.39682,-0.31451 0.9158,-0.21277 1.64658,-0.50877 -0.72616,-0.78167 -0.9158,-1.03605 -0.32376,-1.64658 -0.15726,-1.04993 -0.18963,-0.89267 -0.35152,-1.11931 -0.52728,-1.57721 -0.56428,-1.5772 -0.45327,-1.12856 -0.50878,-0.92967 -0.69378,-1.10544 -0.67529,-1.0268 -0.4579,-0.69841 -0.62903,-0.75391 -0.44402,-0.89267 -0.0833,-1.02218 -0.0462,-1.57258 0,-1.62808 0.0555,-1.18407 0.20814,-1.04067 0.35152,-1.29044 0.36077,-1.20257 0.22663,-0.77241 0.26827,-1.09618 0.148,-0.98055 0.22202,-1.54483 0.26826,-1.63271 0.28214,-1.24419 0.48102,-1.24419 0.72617,-1.63271 0.73541,-1.54483 0.50415,-0.98055 1.26269,-1.09618 0.94355,-0.56428 1.47082,-0.85567 1.48933,-0.86029 0.9898,-0.5874 1.11468,-0.61516 0.8973,-0.82329 0.58278,-1.04993 0.80479,-1.63734 0.67528,-1.64658 0.19426,-1.06843 -0.61978,-0.56428 -1.22106,-0.4949 -1.36444,-0.38852 -1.05918,-0.24051 -1.07768,-0.13413 -1.4477,-0.0833 -1.4107,-0.0139 -0.96205,0.0833 -1.30432,0.81867 -1.10543,1.01755 -1.14243,1.13318 -1.34595,1.10543 -0.99442,0.35615 -1.45233,0.40702 -1.45232,0.39777 -0.99443,0.31914 -1.37832,0.83254 -1.16556,0.85567 -1.07768,0.80479 -1.27194,0.94818 -1.02218,0.72153 -1.51245,1.06381 -1.47082,1.03143 -0.89267,0.62903 -0.26827,0.21276 -0.82329,0.66603 -1.35057,1.09618 -1.41995,1.12856 -1.03143,0.76317 -0.87416,0.48102 -1.08231,0.50415 -1.67896,0.76317 -1.26269,0.94817 -0.77704,0.86029 -1.19331,1.35982 -1.18869,1.36445 -0.75854,0.86954 -0.97592,1.09618 -0.8418,0.85567 -0.63365,0.64291 -0.69379,0.69841 -0.68916,0.69379 -0.61978,0.6244 -0.78167,0.79092"
         style="display:inline;overflow:hidden;fill:#00ff00;stroke:#000000;stroke-width:2;stroke-linejoin:round;stroke-opacity:0.35;text-rendering:optimizeLegibility" />
      <path
         inkscape:connector-curvature="0"
         id="path114-0"
         d="m 164.45373,691.93366 0.66604,0.98518 0.52727,0.77704 0.58741,0.86491 0.59665,0.87417 0.54578,0.8048 0.74466,1.09618 0.62441,0.98055 0.60128,0.83254 0.66141,0.74004 1.0083,1.0823 1.01293,1.06843 0.67991,0.69841 0.70304,0.57353 0.82791,0.60591 0.98055,0.79554 0.72154,0.58741 0.78629,0.63828 0.78167,0.63366 0.70766,0.57353 0.91579,0.73541 0.53653,0.25439 0.76317,0.21738 1.23493,0.34689 1.32282,0.36077 1.03605,0.25902 1.07306,0.25901 1.4292,0.33302 1.40145,0.26364 0.9898,0.0555 0.77241,-0.33764 0.88342,-0.63366 1.40145,-1.11931 0.84179,-0.4579 0.99443,-0.42552 0.95742,-0.31452 1.4477,-0.44864 1.47083,-0.49028 1.0268,-0.43477 0.74929,-0.52265 0.84641,-0.73542 0.7863,-0.81404 0.56427,-0.75391 0.42553,-1.09618 0.46714,-1.59571 0.50878,-1.60033 0.54578,-1.11006 0.99442,-0.79091 1.50321,-0.87417 1.47545,-0.81404 0.91579,-0.60129 0.55503,-1.25806 0.0971,-1.06843 -0.65216,-0.78166 -0.86954,-0.37927 -1.40145,-0.57353 -1.48932,-0.51803 -1.13319,-0.21739 -1.06843,0.30527 -1.37832,0.65216 -1.37832,0.63828 -1.06843,0.26364 -1.1008,-0.31452 -1.43383,-0.67991 -1.39219,-0.76779 -0.96668,-0.58278 -0.70303,-0.5504 -0.76779,-0.72154 -1.24419,-1.17943 -0.99905,-0.62441 -1.17944,-0.58278 -0.94355,-0.41627 -1.39219,-0.59666 -1.4477,-0.57353 -1.11006,-0.35151 -1.06843,-0.14801 -1.37832,-0.0879 -1.37832,-0.0185 -1.06843,0.0648 -1.08231,0.24976 -1.40607,0.43015 -1.38294,0.47178 -1.02218,0.37002 -0.94355,0.40239 -1.17481,0.54578 -1.09618,0.52728 -0.70304,0.33764 -0.97592,0.50877 -0.96205,0.93893 -0.73079,0.73078 -0.79554,0.80017 -0.79092,0.80017 -0.71228,0.72153 -0.90192,0.91118"
         style="display:inline;overflow:hidden;fill:#00ff00;stroke:#000000;stroke-width:2;stroke-linejoin:round;stroke-opacity:0.35;text-rendering:optimizeLegibility" />
      <path
         inkscape:connector-curvature="0"
         id="path116-2"
         d="m 207.61659,652.05589 0.86029,0.63365 1.20719,0.94818 0.87417,0.78166 1.29506,1.17944 1.26732,1.15168 0.79091,0.70766 0.67066,0.33764 0.86955,0.41628 1.40145,0.67066 1.48932,0.70766 1.13319,0.52727 1.12855,0.49028 1.48008,0.62441 1.40145,0.59203 0.88804,0.38389 1.04993,0.65216 0.73541,0.50878 1.14244,0.79554 1.16556,0.83254 0.80016,0.62903 1.09618,1.24419 1.0083,1.3922 0.60591,0.96205 0.83717,1.39219 0.81405,1.3552 0.53653,0.85104 0.99442,0.84642 0.69841,0.71691 1.08694,1.12856 1.17018,1.11931 0.94355,0.68453 1.02218,0.20351 1.38294,0.037 1.40607,-0.009 1.08231,0.0648 1.06843,0.23588 1.37832,0.37002 1.37832,0.43015 1.06843,0.42089 1.11931,0.65216 1.47082,0.96668 1.39683,0.98055 0.90654,0.69378 0.77704,0.98055 0.65679,1.12856 0.70766,1.04531 0.5134,0.75391 0.55503,0.81867 0.5504,0.80941 0.4949,0.72616 0.63828,0.9343 0.30527,0.31452 0.83717,0.64753 1.37832,1.05456 1.41532,1.08693 0.95742,0.74003 1.19794,1.02681 1.04068,0.85104 1.22106,0.63828 1.43845,0.71229 1.0083,0.55503 1.46158,0.81867 1.45232,0.81866 0.9713,0.55503 1.12856,0.73541 0.95742,0.57353 1.29044,0.41627 1.52171,0.34227 1.0083,0.13413 1.45232,0.15726 1.4477,0.12026 0.99443,0.0139 1.39682,-0.45789 1.18406,-0.72617 1.12393,-1.35519 0.63829,-0.84179 0.5504,-0.62904 0.72154,-0.59203 1.01292,-0.75854 0.99905,-0.72616 0.67066,-0.49952 0.75854,-0.61516 0.73079,-0.73541 0.61978,-0.79554 0.9158,-1.22107 0.92042,-1.22568 0.63828,-0.81405 0.89267,-0.82329 0.90655,-0.80016 0.67066,-0.69841 0.9713,-1.03606 0.96667,-1.11005 0.66141,-0.9343 0.51803,-1.10543 0.59665,-1.53096 0.44403,-1.56333 0.0694,-1.20256 -0.65679,-1.25344 -0.57815,-0.80479 -0.65679,-0.84179 -0.67066,-0.81867 -0.61515,-0.73079 -0.81404,-0.95742 -0.8973,-0.67529 -0.88342,-0.53652 -1.40145,-0.8418 -1.4847,-0.77704 -1.12856,-0.33764 -1.06843,0.39777 -1.37832,0.86955 -1.37832,0.86491 -1.06843,0.3839 -1.09618,-0.36077 -1.4292,-0.81404 -1.39219,-0.90655 -0.97593,-0.64291 -0.74466,-0.48564 -0.83717,-0.58741 -1.34132,-0.9528 -0.90192,-0.67066 -1.0638,-0.59665 -0.92968,-0.28214 -1.39682,-0.3654 -1.45695,-0.32839 -1.11468,-0.16651 -1.06843,0.0462 -1.37832,0.17114 -1.37832,0.20813 -1.06843,0.16651 -1.10081,0.16651 -1.43382,0.22664 -1.3922,0.23589 -0.9713,0.18963 -1.5217,0.49953 -1.29044,0.4949 -1.07305,0.45327 -1.01293,0.30989 -1.01293,-0.24976 -1.07305,-0.50878 -1.42458,-1.11006 -0.81866,-0.71691 -0.56891,-0.57815 -0.79554,-1.42458 -0.83254,-1.57258 -0.67529,-0.89729 -0.99442,-1.25344 -0.97593,-1.21644 -0.6244,-0.79091 -0.76317,-1.24419 0,-1.02681 0.0601,-1.6142 0.0879,-1.64659 0.0786,-1.1193 0.23589,-1.46158 0.30064,-1.23956 0.5504,-1.23957 0.44402,-1.46157 -0.13876,-1.05456 -0.31914,-1.53557 -0.28676,-1.59109 -0.0555,-1.22106 0.37001,-1.23956 0.68454,-1.62809 0.74929,-1.54483 0.56428,-0.99442 1.0638,-0.79554 1.27194,-0.61978 1.02218,-0.67529 1.51245,-1.01293 1.47083,-0.99442 0.89267,-0.62903 0.28676,-0.67529 0.13876,-1.03143 0.20814,-1.66508 0.18038,-1.66971 0.0648,-1.04068 -0.87879,-0.86492 -0.88342,-0.41627 -1.40145,-0.62441 -1.4847,-0.61978 -1.12856,-0.4024 -1.07305,-0.27288 -1.38295,-0.28677 -1.38294,-0.17113 -1.05918,0.074 -1.10081,0.63828 -1.43382,1.11931 -1.3367,1.13781 -0.80941,0.68916 -0.20814,0.18963 -0.85104,0.19889 -1.40608,0.31914 -1.49857,0.37465 -1.14244,0.37001 -1.13318,0.58278 -1.4847,0.86955 -1.40145,0.86492 -0.87879,0.5689 -0.78167,1.05456 -0.76317,0.61053 -1.20719,0.9343 -1.24881,0.95742 -0.88805,0.68453 -0.69378,0.53653 -0.81867,0.63366 -1.34132,1.0453 -0.93892,0.80017 -1.10543,0.82329 -0.97593,0.51803 -1.46157,0.73079 -1.4662,0.72616 -0.9898,0.49952 -1.24419,0.63366 -1.05456,0.67529 -0.52727,0.57815 -0.69379,0.86029 -0.73079,0.88342 -0.64753,0.64754 -0.90655,0.58278 -1.29969,0.73079 -1.25806,0.6799 -0.78629,0.43478 -0.65216,0.59203 -0.41627,0.92967 -0.64291,1.5032 -0.62903,1.48933 -0.37465,0.89267"
         style="display:inline;overflow:hidden;fill:#00ff00;stroke:#000000;stroke-width:2;stroke-linejoin:round;stroke-opacity:0.35;text-rendering:optimizeLegibility" />
      <path
         inkscape:connector-curvature="0"
         id="path119-5"
         d="m 347.89953,760.81783 -0.009,0.99905 -0.0139,1.66508 0.0879,1.68359 0.29601,1.05456 0.85567,0.40702 1.40145,0.23588 1.49858,0.13876 1.1378,0.12488 1.06843,0.15726 1.37832,0.18963 1.37833,0.21277 1.06843,0.22201 1.10543,0.36539 1.43845,0.54578 1.39219,0.56428 0.95743,0.42552 1.37832,0.92042 1.16556,0.89267 1.07768,0.74929 1.27194,0.83717 0.99905,0.60128 1.47545,0.87417 1.46157,0.86029 0.96205,0.55966 0.9528,0.5134 0.80479,0.41627 1.48008,0.73079 0.9158,0.48565 0.74466,0.4764 0.86954,0.75854 1.19331,1.12855 1.14706,1.11469 0.73542,0.71691 0.95742,0.99442 0.76316,0.8418 1.19794,1.32281 1.19794,1.34595 0.76316,0.90654 0.55966,1.05456 0.41627,0.9713 0.41164,0.64291 0.61053,0.90654 0.63366,0.97593 0.48103,0.85104 0.48102,1.15631 0.62441,1.65121 0.59203,1.60033 0.38852,0.99443 0.67066,0.78166 0.92967,0.76317 0.71229,0.57815 0.78166,0.63366 0.78629,0.63366 0.72154,0.57815 0.96667,0.75854 1.26269,0.67529 0.66141,0.35151 1.00368,0.53191 1.07768,0.5689 0.88804,0.46715 1.06381,0.55503 1.48007,0.76316 1.4292,0.74466 0.92043,0.49028 1.28119,0.92967 0.6614,0.37002 0.99906,0.54578 1.07305,0.5874 0.88342,0.49953 1.06843,0.64753 1.48933,0.9158 1.43382,0.88342 0.90655,0.5504 0.97592,0.4024 0.70304,0.32839 1.09618,0.51803 1.17481,0.5319 0.94355,0.37002 1.02218,0.24514 1.38294,0.26826 1.40607,0.26826 1.08231,0.24977 1.11468,0.37464 1.45695,0.54115 1.39682,0.53653 0.9343,0.36077 1.07768,0.39314 0.91117,0.40703 1.33207,0.93429 0.83254,0.58741 0.74004,0.46252 0.97593,0.4949 1.39219,0.66141 1.4292,0.63828 1.09618,0.42553 1.13319,0.26363 1.48932,0.25902 1.40145,0.21738 0.86492,0.14801 0.57353,0.31452 0.75854,0.34227 1.22106,0.54577 1.31357,0.56428 1.0268,0.40702 1.04068,0.33765 1.38294,0.41164 1.39682,0.37465 1.07768,0.22663 1.06843,0.0786 1.37832,0.0185 1.37833,-0.0139 1.06843,-0.0185 1.06843,-0.037 1.37832,-0.0694 1.37832,-0.0786 1.06843,-0.0694 1.06843,-0.0833 1.37832,-0.11563 1.37832,-0.1295 1.06843,-0.11564 1.09618,-0.13413 1.4292,-0.18963 1.38757,-0.21739 0.98055,-0.21738 0.77241,-0.3469 0.88342,-0.51802 1.40145,-0.94818 0.90655,-0.77704 0.92967,-0.93429 0.69378,-0.73079 1.00831,-1.07768 1.00367,-1.09618 0.67529,-0.78629 0.84179,-1.35982 0.67066,-1.28119 0.66141,-1.26732 0.61978,-1.49858 0.19889,-1.1008 0.23126,-1.61421 0.25901,-1.60496 0.28677,-1.0823 1.17018,-1.35057 0.77704,-0.62441 0.68916,-0.51803 0.96668,-0.65678 1.40144,-0.88805 1.3552,-0.84641 0.82791,-0.52266 0.34227,-0.33764 0.87417,-0.33301 1.43382,-0.53191 1.50321,-0.5874 1.0823,-0.50415 0.90192,-0.64291 1.10544,-0.91117 1.0268,-0.91117 0.67528,-0.63829 0.61516,-0.94355 0.5689,-0.97592 0.61978,-0.70304 0.9343,-1.01755 0.94818,-1.0268 0.65215,-0.73079 0.91118,-1.18868 0.82791,-1.15631 0.50878,-0.64291 0.70766,-0.8788 0.90192,-1.5402 -0.85567,-1.31819 -1.26731,-1.2997 -0.60128,-0.62903 -0.82792,-0.83717 -0.82792,-0.80016 -0.59665,-0.51803 -0.93893,-0.48102 -1.10543,-0.30064 -0.9343,-0.11101 -1.39219,-0.12488 -1.45233,-0.14801 -1.11005,-0.18501 -1.10081,-0.36077 -1.43382,-0.55502 -1.3922,-0.58741 -0.96667,-0.4579 -1.48008,-1.0638 -1.25344,-1.0268 -0.9898,-0.83717 -1.17018,-0.70304 -0.93893,-0.13413 -1.39219,-0.0971 -1.45233,-0.10176 -1.11006,-0.15263 -1.11005,-0.33764 -1.4477,-0.52728 -1.3922,-0.54578 -0.94355,-0.40702 -1.22568,-0.63365 -1.01293,-0.92968 -0.54115,-1.07305 -0.71692,-1.66046 -0.67528,-1.64659 -0.4209,-1.02217 -0.30526,-0.78167 -0.59666,-0.87417 -0.9713,-1.40145 -0.99905,-1.41532 -0.67991,-0.92967 -0.75391,-0.92967 -0.88805,-0.69841 -0.9158,-0.43015 -1.39682,-0.58278 -1.46157,-0.5319 -1.11931,-0.27289 -1.06843,0.0694 -1.37832,0.26363 -1.37832,0.33302 -1.06843,0.28677 -1.10543,0.35151 -1.44308,0.50878 -1.39219,0.50415 -0.9528,0.34227 -1.32282,0.44402 -1.12393,0.33764 -1.12393,0.24977 -1.32282,0.19426 -1.01755,0.0416 -1.49858,0.0324 -1.46158,0.009 -0.92042,-0.0185 -0.86029,-0.50878 -0.74466,-0.6059 -1.17482,-0.9713 -1.22568,-1.0083 -0.88805,-0.70766 -0.74929,-0.50878 -0.91579,-0.57816 -1.47545,-1.02217 -0.9713,-1.20256 -0.78629,-1.26732 -0.37465,-1.34594 -0.50415,-1.58646 -0.64753,-1.13318 -0.48565,-0.79554 -0.52728,-0.85567 -0.52728,-0.84642 -0.48102,-0.76317 -0.63828,-1.01292 -0.70767,-1.01293 -0.17575,-0.79091 -0.23127,-1.23957 -0.29601,-1.32282 -0.3654,-1.03605 -0.75853,-1.12856 -0.56428,-0.74466 -0.61516,-0.78167 -0.61053,-0.76316 -0.55503,-0.67991 -0.72154,-0.88342 -0.4764,-0.4209 -0.82329,-0.67991 -1.33207,-1.1008 -1.35982,-1.12856 -0.90192,-0.76316 -0.9528,-0.89268 -0.84641,-0.83716 -0.58741,-0.62441 -0.83254,-0.8973 -0.8973,-0.89267 -0.77704,-0.6059 -0.98517,-0.4024 -1.38757,-0.42552 -1.42458,-0.37464 -1.09618,-0.24977 -1.06843,-0.18963 -1.37832,-0.19426 -1.37832,-0.13876 -1.06843,-0.0231 -1.06843,0.20352 -1.37832,0.38852 -1.37832,0.38852 -1.06843,0.19888 -1.06843,-0.0601 -1.37832,-0.19888 -1.37832,-0.22664 -1.06843,-0.14801 -1.10081,-0.148 -1.43845,-0.19889 -1.39219,-0.0879 -0.96205,0.18038 -0.70304,0.79092 -0.76779,1.34132 -0.69378,1.45695 -0.47178,1.13781 -0.32839,1.21643 -0.32839,1.64196 -0.29602,1.56333 -0.23126,0.98055 -1.07305,0.88805 -0.9158,0.26826 -1.44307,0.37002 -1.48933,0.41627 -1.0453,0.4024 -0.79554,0.61516 -0.92505,0.90654 -0.85567,0.91117 -0.59666,0.63366 -0.79091,1.0268 -0.92967,0.72617 -0.92043,-0.037 -1.39682,-0.20813 -1.46157,-0.22201 -1.11469,-0.0833 -1.06843,0.11563 -1.37832,0.23589 -1.37832,0.30989 -1.06843,0.32839 -1.1378,0.59203 -1.49858,0.90655 -1.40145,0.89267 -0.85567,0.54578 -0.36539,0.27289 -0.73541,0.98517 -0.56891,0.76779 -0.62903,0.85567 -0.62903,0.86492 -0.57353,0.80479 -0.74929,1.12394 -0.43015,1.35981 -0.21738,1.15169 -0.54116,1.41532 -0.78166,1.47545 -0.65678,0.70304 -0.98518,0.9343 -1.05918,0.92042 -0.87417,0.65216 -1.07768,0.5319 -1.5032,0.61978 -1.43845,0.55503 -0.8788,0.34227 -0.36539,0.148"
         style="display:inline;overflow:hidden;fill:#00ff00;stroke:#000000;stroke-width:2;stroke-linejoin:round;stroke-opacity:0.35;text-rendering:optimizeLegibility" />
      <path
         inkscape:connector-curvature="0"
         id="path123-4"
         d="m 81.583989,647.93117 0.59665,0.41164 0.99905,0.68916 1.10081,0.74929 0.90192,0.59666 1.0453,0.74928 1.4477,1.04993 1.42458,0.88805 0.97592,0.26364 0.69379,-0.79092 0.75391,-1.56795 0.34689,-0.88342 0.29602,-0.85105 0.36077,-1.30894 0.0462,-1.23031 -0.12488,-1.60959 -0.21276,-1.5402 -0.22201,-1.02218 -0.85567,-1.31819 -1.07306,-0.70766 -1.58645,0.88342 -0.92968,0.67991 -0.6429,0.46252 -0.85105,0.46715 -0.88804,0.65216 -0.75392,0.85567 -1.11468,1.33669 -1.07768,1.31357 -0.64753,0.78629"
         style="display:inline;overflow:hidden;fill:#00ff00;stroke:#000000;stroke-width:2;stroke-linejoin:round;stroke-opacity:0.35;text-rendering:optimizeLegibility" />
      <path
         inkscape:connector-curvature="0"
         id="path125-5"
         d="m 287.27045,644.51075 0.19889,0.79554 0.33301,1.32744 0.33765,1.34595 0.21738,0.86029 0.24976,1.07768 0.85105,0.68454 1.39682,1.05455 1.43845,1.07305 0.96205,0.73542 1.10543,1.01292 0.95742,0.8418 1.2997,0.69378 1.53095,0.78629 1.01293,0.60591 1.45695,0.89267 1.44769,0.88342 0.98056,0.57353 1.26268,0.55965 1.06843,0.41165 1.17481,0.49953 1.38758,0.70303 1.0268,0.69379 1.5032,1.05918 1.46158,1.04992 0.90192,0.66141 0.59203,0.74004 0.5874,0.99905 0.44403,0.76317 0.49027,0.84642 0.4949,0.85566 0.45327,0.80017 0.62441,1.14243 0.61053,1.65584 0.59203,1.40607 0.55966,0.55503 0.83716,0.67991 1.4662,1.11006 0.92968,0.86954 1.09618,0.65216 0.9343,-0.005 1.39682,-0.13875 1.45232,-0.14339 1.11006,-0.0277 1.0823,0.15726 1.40608,0.28677 1.38294,0.35614 1.01755,0.36539 0.92968,0.60128 1.15168,0.91118 1.06843,0.91579 0.69379,0.61053 1.04993,1.26732 0.52727,0.80016 0.79554,1.23032 0.81867,1.24881 0.59666,0.85567 1.01755,1.14706 1.14243,1.06843 0.8788,0.69378 1.29506,0.97593 1.26269,0.93892 0.79092,0.57816 0.67066,0.31451 0.88804,0.43478 1.4292,0.70303 1.49395,0.74929 1.08231,0.57815 0.9158,0.59666 1.12393,0.79092 1.0453,0.75391 0.67991,0.48102 1.12856,0.63366 0.89267,0.26827 1.40145,0.39314 1.47545,0.40702 1.12393,0.30527 1.06843,0.30989 1.37832,0.40239 1.37832,0.37002 1.06843,0.20814 1.09618,0.0555 1.4292,-0.0139 1.38757,-0.10176 0.98055,-0.21276 0.77242,-0.55503 0.88342,-0.90655 0.82329,-0.92967 0.58278,-0.62903 0.88342,-0.68916 0.9528,-0.76779 0.80479,-0.78629 1.19331,-1.19331 1.17481,-1.18869 0.74929,-0.77704 0.97592,-1.26731 0.55966,-0.79554 0.85104,-1.23032 0.87417,-1.24881 0.61978,-0.86029 1.0083,-1.19332 0.98055,-1.11005 0.54578,-0.60591 0.74929,-0.81867 0.74004,-0.88342 0.52728,-0.79554 0.43477,-1.07305 0.5134,-1.53558 0.46715,-1.58183 0.29139,-1.21644 0.18963,-1.22569 0.18039,-1.60033 0.0509,-1.5402 -0.18964,-1.04531 -0.77704,-0.67066 -1.32282,-0.67528 -1.39219,-0.62441 -0.99905,-0.51802 -0.80942,-0.64291 -0.98518,-0.86955 -0.92504,-0.84179 -0.62904,-0.56428 -0.71228,-0.70766 -0.83717,-0.4949 -0.94817,-0.14801 -1.46158,-0.14801 -1.48008,-0.0879 -1.00367,0.0231 -1.32282,0.70304 -1.12393,0.86029 -1.23032,0.92042 -1.21643,0.66141 -1.15169,-0.63365 -1.16093,-0.9528 -1.18406,-1.08693 -0.72154,-0.66141 -0.67528,-0.55041 -0.96205,-0.67528 -1.3922,-0.93892 -1.43845,-0.90655 -1.10543,-0.58278 -1.06843,-0.30527 -1.37832,-0.25438 -1.37832,-0.17576 -1.06843,-0.0648 -1.06843,0.13876 -1.37832,0.30064 -1.37832,0.28214 -1.06843,0.0786 -1.06843,-0.25901 -1.37832,-0.50415 -1.37832,-0.57353 -1.06843,-0.4764 -1.12856,-0.57816 -1.48008,-0.81404 -1.40144,-0.79554 -0.88805,-0.51803 -0.97592,-0.88804 0.97592,-1.35057 0.79092,-0.79092 1.23956,-1.20718 1.14243,-1.22107 0.49953,-0.83254 -0.4949,-0.5134 -1.12856,-0.52728 -1.23494,-0.5134 -0.80941,-0.47177 -0.72617,-1.63271 -0.33764,-0.98518 -0.37002,-0.75854 -0.69378,-0.76779 -1.04531,-0.99905 -1.04067,-0.9713 -0.68454,-0.67991 -0.80479,-1.03605 -0.4209,-0.94817 0.45328,-1.13781 0.76779,-1.22569 0.50877,-0.65678 0.74929,-0.90192 0.76779,-0.88342 0.57353,-0.59666 1.18406,-0.63366 1.11006,-0.71691 0.41164,-0.74004 0.49953,-1.11931 0.4579,-1.20718 0.29139,-0.9898 0.16651,-1.17019 0.13875,-1.61883 0.0648,-1.57721 -0.0601,-1.04067 -0.77242,-1.11469 -1.19793,-0.85104 -0.92968,-0.49028 -1.39682,-0.65215 -1.45695,-0.63829 -1.11468,-0.43939 -1.06843,-0.35615 -1.37832,-0.40702 -1.37832,-0.30989 -1.06843,-0.0648 -1.06843,0.37464 -1.37832,0.72154 -1.37832,0.78629 -1.06843,0.5689 -1.10081,0.46715 -1.43382,0.57816 -1.3922,0.54577 -0.97592,0.37002 -1.55408,0.49953 -1.31357,0.40702 -0.99443,0.28214 -1.03605,0.58278 -0.69841,0.86954 -1.00368,1.38295 -0.99442,1.3922 -0.67066,0.89267 -0.70304,0.62903 -0.82791,0.5504 -0.97593,0.71691 -0.72154,0.52728 -0.78629,0.57353 -1.48932,1.08693 -0.92505,0.68454 -0.70766,0.63365 -0.74004,0.40702 -1.17944,0.62441 -1.26731,0.66604 -0.99905,0.52265 -1.08693,0.5689 -1.47083,0.76317 -1.41532,0.73078 -0.9158,0.47178 -1.41532,0.65216 -0.64291,0.37464 -0.9528,0.57353 -1.0268,0.57815 -0.85567,0.39315 -1.05918,0.22201 -1.4847,0.21276 -1.43382,0.22664 -0.91117,0.26364 -0.74467,1.31356 -0.34226,1.23957"
         style="display:inline;overflow:hidden;fill:#00ff00;stroke:#000000;stroke-width:2;stroke-linejoin:round;stroke-opacity:0.35;text-rendering:optimizeLegibility" />
    </g>
    <circle
       style="color:#000000;clip-rule:nonzero;display:inline;overflow:visible;visibility:visible;opacity:1;isolation:auto;mix-blend-mode:normal;color-interpolation:sRGB;color-interpolation-filters:linearRGB;solid-color:#000000;solid-opacity:1;fill:#00ff00;fill-opacity:1;fill-rule:nonzero;stroke:#000000;stroke-width:2;stroke-linecap:butt;stroke-linejoin:miter;stroke-miterlimit:4;stroke-dasharray:none;stroke-dashoffset:0;stroke-opacity:1;color-rendering:auto;image-rendering:auto;shape-rendering:auto;text-rendering:auto;enable-background:accumulate"
       id="path3585-7-3-2"
       cx="517.28961"
       cy="832.30615"
       r="115.63599"
       transform="matrix(0.99111579,0.13300181,-0.13300181,0.99111579,0,0)" />
    <path
       style="color:#000000;clip-rule:nonzero;display:inline;overflow:visible;visibility:visible;opacity:0.5;isolation:auto;mix-blend-mode:normal;color-interpolation:sRGB;color-interpolation-filters:linearRGB;solid-color:#000000;solid-opacity:1;fill:#00ff00;fill-opacity:1;fill-rule:nonzero;stroke:#000000;stroke-width:2;stroke-linecap:butt;stroke-linejoin:miter;stroke-miterlimit:4;stroke-dasharray:none;stroke-dashoffset:0;stroke-opacity:1;color-rendering:auto;image-rendering:auto;shape-rendering:auto;text-rendering:auto;enable-background:accumulate"
       d="m 22.899481,123.92195 0,856.5918 56.70117,0 0,-856.5918 -56.70117,0 z m 6.18554,376.625 c 16.1332,4.18417 30.11308,6.9196 41.94141,8.20703 l 2.65625,9.53516 c -0.0805,0.0402 -0.78365,0.30234 -2.11133,0.78516 l -8.93164,3.13867 c -1.44836,0.52302 -2.37503,0.82379 -2.77734,0.90429 4.74742,0.84489 9.35451,1.5094 13.82031,1.99219 l 2.89648,9.65625 -45.38281,-7.9668 -2.11133,-10.4414 c 1.2472,0.0805 3.0173,0.12109 5.31055,0.12109 5.4716,0 10.27989,-0.18088 14.42383,-0.54297 2.37371,-0.20116 4.28405,-0.50197 5.73242,-0.90429 l -23.53516,-4.10352 -1.93164,-10.38086 z m 4.70703,32.64649 c 5.43139,0.0402 10.88387,3.46045 16.35547,10.25976 1.52884,-0.56326 6.33516,-2.8963 14.42188,-7 1.93115,2.09209 4.76815,5.25022 8.50976,9.47461 l -16.65625,6.45703 0,0.0606 c 5.27044,0.96558 10.13772,1.68909 14.60352,2.17187 l 2.65625,9.53516 c -0.88511,-0.0805 -3.56154,-0.52347 -8.02734,-1.32812 l -34.69922,-6.03516 c -1.89092,-6.31649 -2.83594,-11.48458 -2.83594,-15.50781 0,-5.43138 1.89003,-8.12809 5.67187,-8.08789 z m 7.1211,10.19922 c -0.88511,0 -1.32813,0.58325 -1.32813,1.75 0,0.92534 0.30277,2.27274 0.90625,4.04296 1.36791,0.3621 2.73561,0.68518 4.10352,0.9668 l 4.10351,0.84375 c -0.72419,-1.40814 -1.66919,-2.79617 -2.83593,-4.16406 -1.36791,-1.56907 -2.67662,-2.61565 -3.92383,-3.13867 -0.3621,-0.20119 -0.70353,-0.30078 -1.02539,-0.30078 z m -11.82813,19.36914 c 16.1332,4.18417 30.11308,6.92155 41.94141,8.20898 l 2.65625,9.59375 -42.66602,-7.42187 -1.93164,-10.38086 z m -1.38867,20.03515 c 12.19041,2.09209 26.61528,3.03711 43.27149,2.83594 l 2.95703,12.79297 -7.54493,-0.9043 0.78516,4.04297 5.31055,1.26758 1.93164,12.67383 c -15.08714,-5.91416 -29.63193,-10.70213 -43.63281,-14.36328 l -3.07813,-18.34571 z m 7.78516,10.98242 0,0.0605 23.35547,5.67383 -0.54297,-2.95703 -22.8125,-2.77735 z m -0.60352,14.48243 7.48438,6.81836 c -0.96558,0.92534 -1.44922,1.99224 -1.44922,3.19921 0,2.13232 1.83105,4.34543 5.49219,6.63868 3.01742,1.89092 5.83411,3.11838 8.44921,3.68164 1.24721,0.28162 2.3731,0.42187 3.37891,0.42187 2.69557,0 4.54693,-0.98564 5.55273,-2.95703 0.32186,-0.64371 0.48243,-1.32854 0.48243,-2.05273 0,-2.09208 -1.5486,-4.28488 -4.64649,-6.57813 l 7.18164,-1.92969 c 4.42557,3.98301 6.63672,8.02521 6.63672,12.12891 0,4.18417 -2.21115,7.24267 -6.63672,9.17383 -2.57486,1.16674 -5.4525,1.75 -8.63086,1.75 -2.33348,0 -4.80678,-0.30277 -7.42187,-0.90625 -5.35091,-1.20698 -10.24045,-3.49939 -14.66602,-6.87891 -5.3509,-4.06347 -8.02539,-8.48969 -8.02539,-13.27734 0,-4.18417 2.27209,-7.26103 6.81836,-9.23242 z m -6.39648,28.17968 11.22461,0.36328 c 0.16093,2.81628 0.36212,5.49077 0.60351,8.0254 11.14437,2.65533 21.38288,4.44574 30.7168,5.37109 l 2.65625,10.19922 -32.10547,-5.55274 c 0.16093,1.08628 0.3418,2.1735 0.54297,3.25977 l 0.60351,3.19922 -11.28515,0.72265 -2.95703,-25.58789 z m 0.60351,28.54297 c 16.1332,4.18417 30.11308,6.92155 41.94141,8.20899 l 2.65625,9.59375 -42.66602,-7.42188 -1.93164,-10.38086 z m 4.70703,15.14649 c 7.60392,0.1207 15.46877,6.5182 23.59571,19.1914 4.90835,0.8851 9.4545,1.52739 13.63867,1.92969 l 2.65625,9.5957 c -0.88511,-0.1207 -3.57991,-0.60246 -8.08594,-1.44726 l -14.30273,-2.65625 c -13.156,-2.3737 -19.93558,-3.45901 -20.33789,-3.25782 -1.89092,-6.23599 -2.83594,-11.34707 -2.83594,-15.33007 0,-5.4314 1.89003,-8.10639 5.67187,-8.02539 z m 6.88086,9.71484 c -0.68395,0 -1.02734,0.50397 -1.02734,1.50977 0,0.9656 0.32308,2.47359 0.9668,4.52539 1.1265,0.2816 2.2524,0.54375 3.3789,0.78515 l 3.31836,0.66407 c -1.85069,-3.74161 -3.80166,-6.15599 -5.85351,-7.24219 -0.32186,-0.1612 -0.58205,-0.24219 -0.78321,-0.24219 z"
       id="rect5168"
       inkscape:connector-curvature="0" />
  </g>
</svg>
